<svg width="327" height="252" viewBox="0 0 327 252" fill="none" xmlns="http://www.w3.org/2000/svg">
<rect x="0.5" y="0.5" width="326" height="251" rx="11.5" stroke="#BEBEBE"/>
<rect x="128.5" y="20" width="70" height="24" rx="4" fill="black"/>
<path d="M143.898 28.5V36.5H142.96L138.601 30.2187H138.523V36.5H137.554V28.5H138.492L142.867 34.7969H142.945V28.5H143.898ZM148.149 36.625C147.607 36.625 147.132 36.4961 146.723 36.2383C146.317 35.9805 145.999 35.6198 145.77 35.1562C145.543 34.6927 145.43 34.151 145.43 33.5312C145.43 32.9062 145.543 32.3607 145.77 31.8945C145.999 31.4284 146.317 31.0664 146.723 30.8086C147.132 30.5508 147.607 30.4219 148.149 30.4219C148.691 30.4219 149.165 30.5508 149.571 30.8086C149.98 31.0664 150.297 31.4284 150.524 31.8945C150.753 32.3607 150.868 32.9062 150.868 33.5312C150.868 34.151 150.753 34.6927 150.524 35.1562C150.297 35.6198 149.98 35.9805 149.571 36.2383C149.165 36.4961 148.691 36.625 148.149 36.625ZM148.149 35.7969C148.56 35.7969 148.899 35.6914 149.165 35.4805C149.43 35.2695 149.627 34.9922 149.754 34.6484C149.882 34.3047 149.946 33.9323 149.946 33.5312C149.946 33.1302 149.882 32.7565 149.754 32.4102C149.627 32.0638 149.43 31.7839 149.165 31.5703C148.899 31.3568 148.56 31.25 148.149 31.25C147.737 31.25 147.399 31.3568 147.133 31.5703C146.868 31.7839 146.671 32.0638 146.543 32.4102C146.416 32.7565 146.352 33.1302 146.352 33.5312C146.352 33.9323 146.416 34.3047 146.543 34.6484C146.671 34.9922 146.868 35.2695 147.133 35.4805C147.399 35.6914 147.737 35.7969 148.149 35.7969ZM156.966 30.5L154.748 36.5H153.81L151.591 30.5H152.591L154.248 35.2812H154.31L155.966 30.5H156.966ZM160.484 36.625C159.906 36.625 159.407 36.4974 158.988 36.2422C158.571 35.9844 158.25 35.625 158.023 35.1641C157.799 34.7005 157.687 34.1615 157.687 33.5469C157.687 32.9323 157.799 32.3906 158.023 31.9219C158.25 31.4505 158.565 31.0833 158.968 30.8203C159.375 30.5547 159.848 30.4219 160.39 30.4219C160.703 30.4219 161.011 30.474 161.316 30.5781C161.621 30.6823 161.898 30.8516 162.148 31.0859C162.398 31.3177 162.597 31.625 162.746 32.0078C162.894 32.3906 162.968 32.862 162.968 33.4219V33.8125H158.343V33.0156H162.031C162.031 32.6771 161.963 32.375 161.828 32.1094C161.695 31.8437 161.505 31.6341 161.257 31.4805C161.013 31.3268 160.723 31.25 160.39 31.25C160.023 31.25 159.705 31.3411 159.437 31.5234C159.171 31.7031 158.967 31.9375 158.824 32.2266C158.681 32.5156 158.609 32.8255 158.609 33.1562V33.6875C158.609 34.1406 158.687 34.5247 158.843 34.8398C159.002 35.1523 159.222 35.3906 159.503 35.5547C159.785 35.7161 160.111 35.7969 160.484 35.7969C160.726 35.7969 160.945 35.763 161.14 35.6953C161.338 35.625 161.509 35.5208 161.652 35.3828C161.795 35.2422 161.906 35.0677 161.984 34.8594L162.875 35.1094C162.781 35.4115 162.623 35.6771 162.402 35.9062C162.181 36.1328 161.907 36.3099 161.582 36.4375C161.256 36.5625 160.89 36.625 160.484 36.625ZM164.371 36.5V30.5H165.261V31.4375H165.339C165.464 31.1172 165.666 30.8685 165.945 30.6914C166.223 30.5117 166.558 30.4219 166.949 30.4219C167.345 30.4219 167.674 30.5117 167.937 30.6914C168.203 30.8685 168.41 31.1172 168.558 31.4375H168.621C168.774 31.1276 169.005 30.8815 169.312 30.6992C169.619 30.5143 169.988 30.4219 170.417 30.4219C170.954 30.4219 171.393 30.5898 171.734 30.9258C172.075 31.2591 172.246 31.7786 172.246 32.4844V36.5H171.324V32.4844C171.324 32.0417 171.203 31.7253 170.96 31.5352C170.718 31.3451 170.433 31.25 170.105 31.25C169.683 31.25 169.356 31.3776 169.125 31.6328C168.893 31.8854 168.777 32.2057 168.777 32.5937V36.5H167.839V32.3906C167.839 32.0495 167.729 31.7747 167.507 31.5664C167.286 31.3555 167.001 31.25 166.652 31.25C166.412 31.25 166.188 31.3138 165.98 31.4414C165.774 31.569 165.608 31.7461 165.48 31.9727C165.355 32.1966 165.292 32.4557 165.292 32.75V36.5H164.371ZM174.056 36.5V28.5H174.978V31.4531H175.056C175.124 31.349 175.218 31.2161 175.337 31.0547C175.46 30.8906 175.634 30.7448 175.861 30.6172C176.09 30.487 176.4 30.4219 176.791 30.4219C177.296 30.4219 177.741 30.5482 178.126 30.8008C178.512 31.0534 178.813 31.4115 179.029 31.875C179.245 32.3385 179.353 32.8854 179.353 33.5156C179.353 34.151 179.245 34.7018 179.029 35.168C178.813 35.6315 178.513 35.9909 178.13 36.2461C177.748 36.4987 177.306 36.625 176.806 36.625C176.421 36.625 176.112 36.5612 175.88 36.4336C175.649 36.3034 175.47 36.1562 175.345 35.9922C175.22 35.8255 175.124 35.6875 175.056 35.5781H174.947V36.5H174.056ZM174.962 33.5C174.962 33.9531 175.029 34.3529 175.162 34.6992C175.294 35.043 175.488 35.3125 175.744 35.5078C175.999 35.7005 176.311 35.7969 176.681 35.7969C177.067 35.7969 177.388 35.6953 177.646 35.4922C177.906 35.2865 178.102 35.0104 178.232 34.6641C178.365 34.3151 178.431 33.9271 178.431 33.5C178.431 33.0781 178.366 32.6979 178.236 32.3594C178.108 32.0182 177.914 31.7487 177.654 31.5508C177.396 31.3503 177.072 31.25 176.681 31.25C176.306 31.25 175.991 31.3451 175.736 31.5352C175.481 31.7227 175.288 31.9857 175.158 32.3242C175.028 32.6602 174.962 33.0521 174.962 33.5ZM183.279 36.625C182.701 36.625 182.202 36.4974 181.783 36.2422C181.366 35.9844 181.044 35.625 180.818 35.1641C180.594 34.7005 180.482 34.1615 180.482 33.5469C180.482 32.9323 180.594 32.3906 180.818 31.9219C181.044 31.4505 181.36 31.0833 181.763 30.8203C182.169 30.5547 182.643 30.4219 183.185 30.4219C183.498 30.4219 183.806 30.474 184.111 30.5781C184.416 30.6823 184.693 30.8516 184.943 31.0859C185.193 31.3177 185.392 31.625 185.541 32.0078C185.689 32.3906 185.763 32.862 185.763 33.4219V33.8125H181.138V33.0156H184.826C184.826 32.6771 184.758 32.375 184.623 32.1094C184.49 31.8437 184.3 31.6341 184.052 31.4805C183.807 31.3268 183.518 31.25 183.185 31.25C182.818 31.25 182.5 31.3411 182.232 31.5234C181.966 31.7031 181.762 31.9375 181.619 32.2266C181.475 32.5156 181.404 32.8255 181.404 33.1562V33.6875C181.404 34.1406 181.482 34.5247 181.638 34.8398C181.797 35.1523 182.017 35.3906 182.298 35.5547C182.58 35.7161 182.906 35.7969 183.279 35.7969C183.521 35.7969 183.74 35.763 183.935 35.6953C184.133 35.625 184.304 35.5208 184.447 35.3828C184.59 35.2422 184.701 35.0677 184.779 34.8594L185.669 35.1094C185.576 35.4115 185.418 35.6771 185.197 35.9062C184.975 36.1328 184.702 36.3099 184.376 36.4375C184.051 36.5625 183.685 36.625 183.279 36.625ZM187.166 36.5V30.5H188.056V31.4062H188.119C188.228 31.1094 188.426 30.8685 188.712 30.6836C188.999 30.4987 189.322 30.4062 189.681 30.4062C189.749 30.4062 189.833 30.4076 189.935 30.4102C190.037 30.4128 190.113 30.4167 190.166 30.4219V31.3594C190.134 31.3516 190.063 31.3398 189.951 31.3242C189.841 31.306 189.725 31.2969 189.603 31.2969C189.311 31.2969 189.051 31.3581 188.822 31.4805C188.595 31.6003 188.416 31.7669 188.283 31.9805C188.153 32.1914 188.087 32.4323 188.087 32.7031V36.5H187.166Z" fill="white"/>
<g clip-path="url(#clip0_565_13067)">
<g clip-path="url(#clip1_565_13067)">
<path d="M30.3838 56.5V64.5H29.8955V57.0156H29.8486L28.0518 58.207V57.6836L29.833 56.5H30.3838ZM35.0781 56.5V64.5H34.5898V57.0156H34.543L32.7461 58.207V57.6836L34.5273 56.5H35.0781Z" fill="white"/>
<path d="M62.3652 56.5H63.5215L66.2402 63.1406H66.334L69.0527 56.5H70.209V64.5H69.3027V58.4219H69.2246L66.7246 64.5H65.8496L63.3496 58.4219H63.2715V64.5H62.3652V56.5ZM74.4639 64.625C73.9222 64.625 73.4469 64.4961 73.0381 64.2383C72.6318 63.9805 72.3141 63.6198 72.085 63.1562C71.8584 62.6927 71.7451 62.151 71.7451 61.5312C71.7451 60.9062 71.8584 60.3607 72.085 59.8945C72.3141 59.4284 72.6318 59.0664 73.0381 58.8086C73.4469 58.5508 73.9222 58.4219 74.4639 58.4219C75.0055 58.4219 75.4795 58.5508 75.8857 58.8086C76.2946 59.0664 76.6123 59.4284 76.8389 59.8945C77.068 60.3607 77.1826 60.9062 77.1826 61.5312C77.1826 62.151 77.068 62.6927 76.8389 63.1562C76.6123 63.6198 76.2946 63.9805 75.8857 64.2383C75.4795 64.4961 75.0055 64.625 74.4639 64.625ZM74.4639 63.7969C74.8753 63.7969 75.2139 63.6914 75.4795 63.4805C75.7451 63.2695 75.9417 62.9922 76.0693 62.6484C76.1969 62.3047 76.2607 61.9323 76.2607 61.5312C76.2607 61.1302 76.1969 60.7565 76.0693 60.4102C75.9417 60.0638 75.7451 59.7839 75.4795 59.5703C75.2139 59.3568 74.8753 59.25 74.4639 59.25C74.0524 59.25 73.7139 59.3568 73.4482 59.5703C73.1826 59.7839 72.986 60.0638 72.8584 60.4102C72.7308 60.7565 72.667 61.1302 72.667 61.5312C72.667 61.9323 72.7308 62.3047 72.8584 62.6484C72.986 62.9922 73.1826 63.2695 73.4482 63.4805C73.7139 63.6914 74.0524 63.7969 74.4639 63.7969Z" fill="#B3B3B3"/>
<path d="M101.358 57.3594V56.5H107.358V57.3594H104.842V64.5H103.874V57.3594H101.358ZM111.693 62.0469V58.5H112.615V64.5H111.693V63.4844H111.63C111.49 63.7891 111.271 64.0482 110.974 64.2617C110.677 64.4727 110.302 64.5781 109.849 64.5781C109.474 64.5781 109.141 64.4961 108.849 64.332C108.557 64.1654 108.328 63.9154 108.162 63.582C107.995 63.2461 107.912 62.8229 107.912 62.3125V58.5H108.833V62.25C108.833 62.6875 108.956 63.0365 109.201 63.2969C109.448 63.5573 109.763 63.6875 110.146 63.6875C110.375 63.6875 110.608 63.6289 110.845 63.5117C111.085 63.3945 111.285 63.2148 111.447 62.9727C111.611 62.7305 111.693 62.4219 111.693 62.0469Z" fill="#B3B3B3"/>
<path d="M138.994 64.5L136.806 56.5H137.791L139.462 63.0156H139.541L141.244 56.5H142.337L144.041 63.0156H144.119L145.791 56.5H146.775L144.587 64.5H143.587L141.822 58.125H141.759L139.994 64.5H138.994ZM149.814 64.625C149.236 64.625 148.737 64.4974 148.318 64.2422C147.901 63.9844 147.58 63.625 147.353 63.1641C147.129 62.7005 147.017 62.1615 147.017 61.5469C147.017 60.9323 147.129 60.3906 147.353 59.9219C147.58 59.4505 147.895 59.0833 148.298 58.8203C148.705 58.5547 149.179 58.4219 149.72 58.4219C150.033 58.4219 150.341 58.474 150.646 58.5781C150.951 58.6823 151.228 58.8516 151.478 59.0859C151.728 59.3177 151.927 59.625 152.076 60.0078C152.224 60.3906 152.298 60.862 152.298 61.4219V61.8125H147.673V61.0156H151.361C151.361 60.6771 151.293 60.375 151.158 60.1094C151.025 59.8437 150.835 59.6341 150.587 59.4805C150.343 59.3268 150.054 59.25 149.72 59.25C149.353 59.25 149.035 59.3411 148.767 59.5234C148.501 59.7031 148.297 59.9375 148.154 60.2266C148.011 60.5156 147.939 60.8255 147.939 61.1562V61.6875C147.939 62.1406 148.017 62.5247 148.173 62.8398C148.332 63.1523 148.552 63.3906 148.833 63.5547C149.115 63.7161 149.442 63.7969 149.814 63.7969C150.056 63.7969 150.275 63.763 150.47 63.6953C150.668 63.625 150.839 63.5208 150.982 63.3828C151.125 63.2422 151.236 63.0677 151.314 62.8594L152.205 63.1094C152.111 63.4115 151.953 63.6771 151.732 63.9062C151.511 64.1328 151.237 64.3099 150.912 64.4375C150.586 64.5625 150.22 64.625 149.814 64.625Z" fill="#B3B3B3"/>
<path d="M176.039 57.3594V56.5H182.039V57.3594H179.523V64.5H178.554V57.3594H176.039ZM184.331 60.8906V64.5H183.409V56.5H184.331V59.4375H184.409C184.549 59.1276 184.76 58.8815 185.042 58.6992C185.325 58.5143 185.703 58.4219 186.174 58.4219C186.583 58.4219 186.941 58.5039 187.249 58.668C187.556 58.8294 187.794 59.0781 187.963 59.4141C188.135 59.7474 188.221 60.1719 188.221 60.6875V64.5H187.299V60.75C187.299 60.2734 187.176 59.9049 186.928 59.6445C186.683 59.3815 186.344 59.25 185.909 59.25C185.607 59.25 185.336 59.3138 185.096 59.4414C184.859 59.569 184.672 59.7552 184.534 60C184.398 60.2448 184.331 60.5417 184.331 60.8906Z" fill="#B3B3B3"/>
<path d="M215.583 64.5V56.5H220.38V57.3594H216.552V60.0625H220.021V60.9219H216.552V64.5H215.583ZM221.85 64.5V58.5H222.741V59.4062H222.803C222.913 59.1094 223.111 58.8685 223.397 58.6836C223.683 58.4987 224.006 58.4062 224.366 58.4062C224.433 58.4062 224.518 58.4076 224.62 58.4102C224.721 58.4128 224.798 58.4167 224.85 58.4219V59.3594C224.819 59.3516 224.747 59.3398 224.635 59.3242C224.526 59.306 224.41 59.2969 224.288 59.2969C223.996 59.2969 223.736 59.3581 223.506 59.4805C223.28 59.6003 223.1 59.7669 222.967 59.9805C222.837 60.1914 222.772 60.4323 222.772 60.7031V64.5H221.85Z" fill="#B3B3B3"/>
<path d="M256.166 58.5C256.119 58.1042 255.929 57.7969 255.596 57.5781C255.262 57.3594 254.854 57.25 254.369 57.25C254.015 57.25 253.705 57.3073 253.439 57.4219C253.176 57.5365 252.971 57.694 252.822 57.8945C252.676 58.0951 252.604 58.3229 252.604 58.5781C252.604 58.7917 252.654 58.9753 252.756 59.1289C252.86 59.2799 252.993 59.4062 253.154 59.5078C253.316 59.6068 253.485 59.6888 253.662 59.7539C253.839 59.8164 254.002 59.8672 254.15 59.9062L254.963 60.125C255.171 60.1797 255.403 60.2552 255.658 60.3516C255.916 60.4479 256.162 60.5794 256.396 60.7461C256.633 60.9102 256.829 61.1211 256.982 61.3789C257.136 61.6367 257.213 61.9531 257.213 62.3281C257.213 62.7604 257.1 63.151 256.873 63.5C256.649 63.849 256.321 64.1263 255.889 64.332C255.459 64.5378 254.937 64.6406 254.322 64.6406C253.749 64.6406 253.253 64.5482 252.834 64.3633C252.417 64.1784 252.089 63.9206 251.85 63.5898C251.613 63.2591 251.479 62.875 251.447 62.4375H252.447C252.473 62.7396 252.575 62.9896 252.752 63.1875C252.932 63.3828 253.158 63.5286 253.432 63.625C253.708 63.7187 254.005 63.7656 254.322 63.7656C254.692 63.7656 255.024 63.7057 255.318 63.5859C255.613 63.4635 255.846 63.2943 256.018 63.0781C256.189 62.8594 256.275 62.6042 256.275 62.3125C256.275 62.0469 256.201 61.8307 256.053 61.6641C255.904 61.4974 255.709 61.362 255.467 61.2578C255.225 61.1536 254.963 61.0625 254.682 60.9844L253.697 60.7031C253.072 60.5234 252.577 60.2669 252.213 59.9336C251.848 59.6003 251.666 59.1641 251.666 58.625C251.666 58.1771 251.787 57.7865 252.029 57.4531C252.274 57.1172 252.602 56.8568 253.014 56.6719C253.428 56.4844 253.89 56.3906 254.4 56.3906C254.916 56.3906 255.374 56.4831 255.775 56.668C256.176 56.8503 256.494 57.1003 256.729 57.418C256.965 57.7357 257.09 58.0964 257.104 58.5H256.166ZM260.446 64.6406C260.066 64.6406 259.721 64.569 259.411 64.4258C259.101 64.2799 258.855 64.0703 258.673 63.7969C258.491 63.5208 258.399 63.1875 258.399 62.7969C258.399 62.4531 258.467 62.1745 258.603 61.9609C258.738 61.7448 258.919 61.5755 259.146 61.4531C259.372 61.3307 259.622 61.2396 259.896 61.1797C260.172 61.1172 260.449 61.0677 260.728 61.0313C261.092 60.9844 261.388 60.9492 261.614 60.9258C261.843 60.8997 262.01 60.8568 262.114 60.7969C262.221 60.737 262.274 60.6328 262.274 60.4844V60.4531C262.274 60.0677 262.169 59.7682 261.958 59.5547C261.75 59.3411 261.433 59.2344 261.009 59.2344C260.569 59.2344 260.224 59.3307 259.974 59.5234C259.724 59.7161 259.548 59.9219 259.446 60.1406L258.571 59.8281C258.728 59.4635 258.936 59.1797 259.196 58.9766C259.459 58.7708 259.746 58.6276 260.056 58.5469C260.368 58.4635 260.675 58.4219 260.978 58.4219C261.17 58.4219 261.392 58.4453 261.642 58.4922C261.894 58.5365 262.138 58.6289 262.372 58.7695C262.609 58.9102 262.806 59.1224 262.962 59.4062C263.118 59.6901 263.196 60.0703 263.196 60.5469V64.5H262.274V63.6875H262.228C262.165 63.8177 262.061 63.957 261.915 64.1055C261.769 64.2539 261.575 64.3802 261.333 64.4844C261.091 64.5885 260.795 64.6406 260.446 64.6406ZM260.587 63.8125C260.951 63.8125 261.259 63.7409 261.509 63.5977C261.761 63.4544 261.951 63.2695 262.079 63.043C262.209 62.8164 262.274 62.5781 262.274 62.3281V61.4844C262.235 61.5312 262.149 61.5742 262.017 61.6133C261.886 61.6497 261.735 61.6823 261.563 61.7109C261.394 61.737 261.229 61.7604 261.067 61.7812C260.909 61.7995 260.78 61.8151 260.681 61.8281C260.441 61.8594 260.217 61.9102 260.009 61.9805C259.803 62.0482 259.636 62.151 259.509 62.2891C259.384 62.4245 259.321 62.6094 259.321 62.8437C259.321 63.1641 259.44 63.4062 259.677 63.5703C259.916 63.7318 260.22 63.8125 260.587 63.8125Z" fill="black"/>
<path d="M293.641 58.5C293.594 58.1042 293.404 57.7969 293.07 57.5781C292.737 57.3594 292.328 57.25 291.844 57.25C291.49 57.25 291.18 57.3073 290.914 57.4219C290.651 57.5365 290.445 57.694 290.297 57.8945C290.151 58.0951 290.078 58.3229 290.078 58.5781C290.078 58.7917 290.129 58.9753 290.23 59.1289C290.335 59.2799 290.467 59.4062 290.629 59.5078C290.79 59.6068 290.96 59.6888 291.137 59.7539C291.314 59.8164 291.477 59.8672 291.625 59.9062L292.438 60.125C292.646 60.1797 292.878 60.2552 293.133 60.3516C293.391 60.4479 293.637 60.5794 293.871 60.7461C294.108 60.9102 294.303 61.1211 294.457 61.3789C294.611 61.6367 294.688 61.9531 294.688 62.3281C294.688 62.7604 294.574 63.151 294.348 63.5C294.124 63.849 293.796 64.1263 293.363 64.332C292.934 64.5378 292.411 64.6406 291.797 64.6406C291.224 64.6406 290.728 64.5482 290.309 64.3633C289.892 64.1784 289.564 63.9206 289.324 63.5898C289.087 63.2591 288.953 62.875 288.922 62.4375H289.922C289.948 62.7396 290.049 62.9896 290.227 63.1875C290.406 63.3828 290.633 63.5286 290.906 63.625C291.182 63.7187 291.479 63.7656 291.797 63.7656C292.167 63.7656 292.499 63.7057 292.793 63.5859C293.087 63.4635 293.32 63.2943 293.492 63.0781C293.664 62.8594 293.75 62.6042 293.75 62.3125C293.75 62.0469 293.676 61.8307 293.527 61.6641C293.379 61.4974 293.184 61.362 292.941 61.2578C292.699 61.1536 292.438 61.0625 292.156 60.9844L291.172 60.7031C290.547 60.5234 290.052 60.2669 289.687 59.9336C289.323 59.6003 289.141 59.1641 289.141 58.625C289.141 58.1771 289.262 57.7865 289.504 57.4531C289.749 57.1172 290.077 56.8568 290.488 56.6719C290.902 56.4844 291.365 56.3906 291.875 56.3906C292.391 56.3906 292.849 56.4831 293.25 56.668C293.651 56.8503 293.969 57.1003 294.203 57.418C294.44 57.7357 294.565 58.0964 294.578 58.5H293.641ZM299.937 62.0469V58.5H300.858V64.5H299.937V63.4844H299.874C299.733 63.7891 299.515 64.0482 299.218 64.2617C298.921 64.4727 298.546 64.5781 298.093 64.5781C297.718 64.5781 297.384 64.4961 297.093 64.332C296.801 64.1654 296.572 63.9154 296.405 63.582C296.239 63.2461 296.155 62.8229 296.155 62.3125V58.5H297.077V62.25C297.077 62.6875 297.2 63.0365 297.444 63.2969C297.692 63.5573 298.007 63.6875 298.39 63.6875C298.619 63.6875 298.852 63.6289 299.089 63.5117C299.328 63.3945 299.529 63.2148 299.69 62.9727C299.854 62.7305 299.937 62.4219 299.937 62.0469Z" fill="black"/>
</g>
<g clip-path="url(#clip2_565_13067)">
<rect x="20" y="74.6665" width="24" height="24" rx="4" fill="#333333"/>
<path d="M26.04 89.3696V88.979L29.6611 83.1665H29.958V83.9204H29.7041L26.6299 88.8735V88.9165H31.251V89.3696H26.04ZM29.7432 91.1665V89.2368V89.061V83.1665H30.2197V91.1665H29.7432ZM32.7539 89.3696V88.979L36.375 83.1665H36.6719V83.9204H36.418L33.3438 88.8735V88.9165H37.9648V89.3696H32.7539ZM36.457 91.1665V89.2368V89.061V83.1665H36.9336V91.1665H36.457Z" fill="#B3B3B3"/>
<path d="M63.6802 91.1665V90.4634L66.3208 87.5728C66.6307 87.2342 66.8859 86.9399 67.0864 86.6899C67.2869 86.4373 67.4354 86.2004 67.5317 85.979C67.6307 85.755 67.6802 85.5207 67.6802 85.2759C67.6802 84.9946 67.6125 84.7511 67.4771 84.5454C67.3442 84.3397 67.1619 84.1808 66.9302 84.0688C66.6984 83.9569 66.438 83.9009 66.1489 83.9009C65.8416 83.9009 65.5734 83.9647 65.3442 84.0923C65.1177 84.2173 64.9419 84.3931 64.8169 84.6196C64.6945 84.8462 64.6333 85.1118 64.6333 85.4165H63.7114C63.7114 84.9478 63.8195 84.5363 64.0356 84.1821C64.2518 83.828 64.5461 83.5519 64.9185 83.354C65.2935 83.1561 65.714 83.0571 66.1802 83.0571C66.6489 83.0571 67.0643 83.1561 67.4263 83.354C67.7882 83.5519 68.0721 83.8188 68.2778 84.1548C68.4836 84.4907 68.5864 84.8644 68.5864 85.2759C68.5864 85.5701 68.533 85.8579 68.4263 86.1392C68.3221 86.4178 68.1398 86.729 67.8794 87.0728C67.6216 87.4139 67.2635 87.8306 66.8052 88.3228L65.0083 90.2446V90.3071H68.7271V91.1665H63.6802ZM72.9028 91.2759C72.3664 91.2759 71.8924 91.1808 71.481 90.9907C71.0721 90.798 70.7531 90.5337 70.5239 90.1978C70.2948 89.8592 70.1815 89.4738 70.1841 89.0415C70.1815 88.703 70.2479 88.3905 70.3833 88.104C70.5187 87.8149 70.7036 87.5741 70.938 87.3813C71.175 87.186 71.4393 87.0623 71.731 87.0103V86.9634C71.3481 86.8644 71.0435 86.6496 70.8169 86.3188C70.5903 85.9855 70.4784 85.6066 70.481 85.1821C70.4784 84.7759 70.5812 84.4126 70.7896 84.0923C70.9979 83.772 71.2843 83.5194 71.6489 83.3345C72.0161 83.1496 72.4341 83.0571 72.9028 83.0571C73.3664 83.0571 73.7804 83.1496 74.145 83.3345C74.5096 83.5194 74.7961 83.772 75.0044 84.0923C75.2153 84.4126 75.3221 84.7759 75.3247 85.1821C75.3221 85.6066 75.2062 85.9855 74.9771 86.3188C74.7505 86.6496 74.4497 86.8644 74.0747 86.9634V87.0103C74.3638 87.0623 74.6242 87.186 74.856 87.3813C75.0877 87.5741 75.2726 87.8149 75.4106 88.104C75.5487 88.3905 75.619 88.703 75.6216 89.0415C75.619 89.4738 75.5018 89.8592 75.27 90.1978C75.0409 90.5337 74.7218 90.798 74.313 90.9907C73.9067 91.1808 73.4367 91.2759 72.9028 91.2759ZM72.9028 90.4165C73.2648 90.4165 73.5773 90.3579 73.8403 90.2407C74.1034 90.1235 74.3065 89.9582 74.4497 89.7446C74.5929 89.5311 74.6659 89.2811 74.6685 88.9946C74.6659 88.6925 74.5877 88.4256 74.4341 88.1938C74.2804 87.9621 74.0708 87.7798 73.8052 87.647C73.5422 87.5142 73.2414 87.4478 72.9028 87.4478C72.5617 87.4478 72.257 87.5142 71.9888 87.647C71.7231 87.7798 71.5135 87.9621 71.3599 88.1938C71.2088 88.4256 71.1346 88.6925 71.1372 88.9946C71.1346 89.2811 71.2036 89.5311 71.3442 89.7446C71.4875 89.9582 71.6919 90.1235 71.9575 90.2407C72.2231 90.3579 72.5382 90.4165 72.9028 90.4165ZM72.9028 86.6196C73.1893 86.6196 73.4432 86.5623 73.6646 86.4478C73.8885 86.3332 74.0643 86.173 74.1919 85.9673C74.3195 85.7616 74.3846 85.5207 74.3872 85.2446C74.3846 84.9738 74.3208 84.7381 74.1958 84.5376C74.0708 84.3345 73.8976 84.1782 73.6763 84.0688C73.4549 83.9569 73.1971 83.9009 72.9028 83.9009C72.6034 83.9009 72.3416 83.9569 72.1177 84.0688C71.8937 84.1782 71.7205 84.3345 71.5981 84.5376C71.4757 84.7381 71.4159 84.9738 71.4185 85.2446C71.4159 85.5207 71.4771 85.7616 71.6021 85.9673C71.7297 86.173 71.9054 86.3332 72.1294 86.4478C72.3534 86.5623 72.6112 86.6196 72.9028 86.6196Z" fill="#616161"/>
<path d="M101.209 91.1665V90.4634L103.85 87.5728C104.16 87.2342 104.415 86.9399 104.615 86.6899C104.816 86.4373 104.964 86.2004 105.061 85.979C105.16 85.755 105.209 85.5207 105.209 85.2759C105.209 84.9946 105.141 84.7511 105.006 84.5454C104.873 84.3397 104.691 84.1808 104.459 84.0688C104.227 83.9569 103.967 83.9009 103.678 83.9009C103.37 83.9009 103.102 83.9647 102.873 84.0923C102.646 84.2173 102.471 84.3931 102.346 84.6196C102.223 84.8462 102.162 85.1118 102.162 85.4165H101.24C101.24 84.9478 101.348 84.5363 101.564 84.1821C101.781 83.828 102.075 83.5519 102.447 83.354C102.822 83.1561 103.243 83.0571 103.709 83.0571C104.178 83.0571 104.593 83.1561 104.955 83.354C105.317 83.5519 105.601 83.8188 105.807 84.1548C106.012 84.4907 106.115 84.8644 106.115 85.2759C106.115 85.5701 106.062 85.8579 105.955 86.1392C105.851 86.4178 105.669 86.729 105.408 87.0728C105.15 87.4139 104.792 87.8306 104.334 88.3228L102.537 90.2446V90.3071H106.256V91.1665H101.209ZM110.416 83.0571C110.744 83.0597 111.072 83.1222 111.4 83.2446C111.729 83.367 112.028 83.5701 112.299 83.854C112.57 84.1353 112.787 84.5194 112.951 85.0063C113.115 85.4933 113.197 86.104 113.197 86.8384C113.197 87.5493 113.13 88.1808 112.994 88.7329C112.861 89.2824 112.669 89.7459 112.416 90.1235C112.166 90.5011 111.861 90.7876 111.502 90.9829C111.145 91.1782 110.742 91.2759 110.291 91.2759C109.843 91.2759 109.443 91.1873 109.092 91.0103C108.743 90.8306 108.456 90.5819 108.232 90.2642C108.011 89.9438 107.869 89.5728 107.807 89.1509H108.76C108.846 89.5181 109.016 89.8215 109.271 90.061C109.529 90.298 109.869 90.4165 110.291 90.4165C110.908 90.4165 111.395 90.147 111.752 89.6079C112.111 89.0688 112.291 88.3071 112.291 87.3228H112.229C112.083 87.5415 111.91 87.7303 111.709 87.8892C111.508 88.048 111.286 88.1704 111.041 88.2563C110.796 88.3423 110.536 88.3853 110.26 88.3853C109.801 88.3853 109.381 88.272 108.998 88.0454C108.618 87.8162 108.313 87.5024 108.084 87.104C107.857 86.703 107.744 86.2446 107.744 85.729C107.744 85.2394 107.854 84.7915 108.072 84.3853C108.294 83.9764 108.604 83.6509 109.002 83.4087C109.403 83.1665 109.874 83.0493 110.416 83.0571ZM110.416 83.9165C110.088 83.9165 109.792 83.9985 109.529 84.1626C109.269 84.3241 109.062 84.5428 108.908 84.8188C108.757 85.0923 108.682 85.3957 108.682 85.729C108.682 86.0623 108.755 86.3657 108.9 86.6392C109.049 86.91 109.251 87.1261 109.506 87.2876C109.764 87.4465 110.057 87.5259 110.385 87.5259C110.632 87.5259 110.863 87.4777 111.076 87.3813C111.29 87.2824 111.476 87.1483 111.635 86.979C111.796 86.8071 111.923 86.6131 112.014 86.397C112.105 86.1782 112.15 85.9504 112.15 85.7134C112.15 85.4009 112.075 85.1079 111.924 84.8345C111.775 84.561 111.57 84.3397 111.307 84.1704C111.046 84.0011 110.749 83.9165 110.416 83.9165Z" fill="#616161"/>
<path d="M141.306 91.2759C140.791 91.2759 140.331 91.1873 139.927 91.0103C139.526 90.8332 139.207 90.5871 138.97 90.272C138.736 89.9543 138.608 89.5858 138.587 89.1665H139.572C139.593 89.4243 139.681 89.647 139.837 89.8345C139.994 90.0194 140.198 90.1626 140.451 90.2642C140.703 90.3657 140.983 90.4165 141.291 90.4165C141.634 90.4165 141.939 90.3566 142.205 90.2368C142.47 90.117 142.679 89.9504 142.83 89.7368C142.981 89.5233 143.056 89.2759 143.056 88.9946C143.056 88.7004 142.983 88.4412 142.837 88.2173C142.692 87.9907 142.478 87.8136 142.197 87.686C141.916 87.5584 141.572 87.4946 141.166 87.4946H140.525V86.6353H141.166C141.483 86.6353 141.762 86.578 142.001 86.4634C142.244 86.3488 142.432 86.1873 142.568 85.979C142.706 85.7707 142.775 85.5259 142.775 85.2446C142.775 84.9738 142.715 84.7381 142.595 84.5376C142.475 84.3371 142.306 84.1808 142.087 84.0688C141.871 83.9569 141.616 83.9009 141.322 83.9009C141.046 83.9009 140.785 83.9517 140.541 84.0532C140.298 84.1522 140.1 84.2967 139.947 84.4868C139.793 84.6743 139.71 84.9009 139.697 85.1665H138.759C138.775 84.7472 138.901 84.38 139.138 84.0649C139.375 83.7472 139.685 83.4998 140.068 83.3228C140.453 83.1457 140.876 83.0571 141.337 83.0571C141.832 83.0571 142.257 83.1574 142.611 83.3579C142.965 83.5558 143.237 83.8175 143.427 84.1431C143.617 84.4686 143.712 84.8201 143.712 85.1978C143.712 85.6483 143.594 86.0324 143.357 86.3501C143.123 86.6678 142.804 86.8879 142.4 87.0103V87.0728C142.905 87.1561 143.3 87.3709 143.583 87.7173C143.867 88.061 144.009 88.4868 144.009 88.9946C144.009 89.4295 143.891 89.8201 143.654 90.1665C143.419 90.5103 143.099 90.7811 142.693 90.979C142.287 91.1769 141.824 91.2759 141.306 91.2759ZM148.216 91.2759C147.628 91.2759 147.126 91.1157 146.712 90.7954C146.298 90.4725 145.982 90.005 145.763 89.3931C145.544 88.7785 145.435 88.0363 145.435 87.1665C145.435 86.3019 145.544 85.5636 145.763 84.9517C145.985 84.3371 146.302 83.8683 146.716 83.5454C147.133 83.2199 147.633 83.0571 148.216 83.0571C148.8 83.0571 149.298 83.2199 149.712 83.5454C150.129 83.8683 150.447 84.3371 150.666 84.9517C150.887 85.5636 150.998 86.3019 150.998 87.1665C150.998 88.0363 150.888 88.7785 150.669 89.3931C150.451 90.005 150.134 90.4725 149.72 90.7954C149.306 91.1157 148.805 91.2759 148.216 91.2759ZM148.216 90.4165C148.8 90.4165 149.253 90.1353 149.576 89.5728C149.899 89.0103 150.06 88.2082 150.06 87.1665C150.06 86.4738 149.986 85.884 149.837 85.397C149.692 84.91 149.481 84.5389 149.205 84.2837C148.931 84.0285 148.602 83.9009 148.216 83.9009C147.638 83.9009 147.186 84.186 146.861 84.7563C146.535 85.3241 146.373 86.1274 146.373 87.1665C146.373 87.8592 146.445 88.4478 146.591 88.9321C146.737 89.4165 146.947 89.785 147.22 90.0376C147.496 90.2902 147.828 90.4165 148.216 90.4165Z" fill="#616161"/>
<path d="M179.758 91.2759C179.243 91.2759 178.783 91.1873 178.379 91.0103C177.978 90.8332 177.659 90.5871 177.422 90.272C177.188 89.9543 177.06 89.5858 177.04 89.1665H178.024C178.045 89.4243 178.133 89.647 178.29 89.8345C178.446 90.0194 178.65 90.1626 178.903 90.2642C179.155 90.3657 179.435 90.4165 179.743 90.4165C180.086 90.4165 180.391 90.3566 180.657 90.2368C180.922 90.117 181.131 89.9504 181.282 89.7368C181.433 89.5233 181.508 89.2759 181.508 88.9946C181.508 88.7004 181.435 88.4412 181.29 88.2173C181.144 87.9907 180.93 87.8136 180.649 87.686C180.368 87.5584 180.024 87.4946 179.618 87.4946H178.977V86.6353H179.618C179.935 86.6353 180.214 86.578 180.454 86.4634C180.696 86.3488 180.885 86.1873 181.02 85.979C181.158 85.7707 181.227 85.5259 181.227 85.2446C181.227 84.9738 181.167 84.7381 181.047 84.5376C180.928 84.3371 180.758 84.1808 180.54 84.0688C180.323 83.9569 180.068 83.9009 179.774 83.9009C179.498 83.9009 179.237 83.9517 178.993 84.0532C178.75 84.1522 178.553 84.2967 178.399 84.4868C178.245 84.6743 178.162 84.9009 178.149 85.1665H177.211C177.227 84.7472 177.353 84.38 177.59 84.0649C177.827 83.7472 178.137 83.4998 178.52 83.3228C178.905 83.1457 179.329 83.0571 179.79 83.0571C180.284 83.0571 180.709 83.1574 181.063 83.3579C181.417 83.5558 181.689 83.8175 181.879 84.1431C182.069 84.4686 182.165 84.8201 182.165 85.1978C182.165 85.6483 182.046 86.0324 181.809 86.3501C181.575 86.6678 181.256 86.8879 180.852 87.0103V87.0728C181.357 87.1561 181.752 87.3709 182.036 87.7173C182.319 88.061 182.461 88.4868 182.461 88.9946C182.461 89.4295 182.343 89.8201 182.106 90.1665C181.872 90.5103 181.551 90.7811 181.145 90.979C180.739 91.1769 180.277 91.2759 179.758 91.2759ZM186.872 83.1665V91.1665H185.903V84.1821H185.856L183.903 85.479V84.4946L185.903 83.1665H186.872Z" fill="#616161"/>
<path d="M220.941 83.1665V91.1665H219.972V84.1821H219.925L217.972 85.479V84.4946L219.972 83.1665H220.941Z" fill="#B3B3B3"/>
<path d="M254.927 91.1665V90.4634L257.567 87.5728C257.877 87.2342 258.132 86.9399 258.333 86.6899C258.534 86.4373 258.682 86.2004 258.778 85.979C258.877 85.755 258.927 85.5207 258.927 85.2759C258.927 84.9946 258.859 84.7511 258.724 84.5454C258.591 84.3397 258.409 84.1808 258.177 84.0688C257.945 83.9569 257.685 83.9009 257.396 83.9009C257.088 83.9009 256.82 83.9647 256.591 84.0923C256.364 84.2173 256.188 84.3931 256.063 84.6196C255.941 84.8462 255.88 85.1118 255.88 85.4165H254.958C254.958 84.9478 255.066 84.5363 255.282 84.1821C255.498 83.828 255.793 83.5519 256.165 83.354C256.54 83.1561 256.961 83.0571 257.427 83.0571C257.896 83.0571 258.311 83.1561 258.673 83.354C259.035 83.5519 259.319 83.8188 259.524 84.1548C259.73 84.4907 259.833 84.8644 259.833 85.2759C259.833 85.5701 259.78 85.8579 259.673 86.1392C259.569 86.4178 259.386 86.729 259.126 87.0728C258.868 87.4139 258.51 87.8306 258.052 88.3228L256.255 90.2446V90.3071H259.974V91.1665H254.927Z" fill="black"/>
<path d="M295.029 91.2759C294.514 91.2759 294.054 91.1873 293.65 91.0103C293.249 90.8332 292.93 90.5871 292.693 90.272C292.459 89.9543 292.331 89.5858 292.311 89.1665H293.295C293.316 89.4243 293.404 89.647 293.561 89.8345C293.717 90.0194 293.921 90.1626 294.174 90.2642C294.426 90.3657 294.706 90.4165 295.014 90.4165C295.357 90.4165 295.662 90.3566 295.928 90.2368C296.193 90.117 296.402 89.9504 296.553 89.7368C296.704 89.5233 296.779 89.2759 296.779 88.9946C296.779 88.7004 296.706 88.4412 296.561 88.2173C296.415 87.9907 296.201 87.8136 295.92 87.686C295.639 87.5584 295.295 87.4946 294.889 87.4946H294.248V86.6353H294.889C295.206 86.6353 295.485 86.578 295.725 86.4634C295.967 86.3488 296.156 86.1873 296.291 85.979C296.429 85.7707 296.498 85.5259 296.498 85.2446C296.498 84.9738 296.438 84.7381 296.318 84.5376C296.199 84.3371 296.029 84.1808 295.811 84.0688C295.594 83.9569 295.339 83.9009 295.045 83.9009C294.769 83.9009 294.508 83.9517 294.264 84.0532C294.021 84.1522 293.824 84.2967 293.67 84.4868C293.516 84.6743 293.433 84.9009 293.42 85.1665H292.482C292.498 84.7472 292.624 84.38 292.861 84.0649C293.098 83.7472 293.408 83.4998 293.791 83.3228C294.176 83.1457 294.6 83.0571 295.061 83.0571C295.555 83.0571 295.98 83.1574 296.334 83.3579C296.688 83.5558 296.96 83.8175 297.15 84.1431C297.34 84.4686 297.436 84.8201 297.436 85.1978C297.436 85.6483 297.317 86.0324 297.08 86.3501C296.846 86.6678 296.527 86.8879 296.123 87.0103V87.0728C296.628 87.1561 297.023 87.3709 297.307 87.7173C297.59 88.061 297.732 88.4868 297.732 88.9946C297.732 89.4295 297.614 89.8201 297.377 90.1665C297.143 90.5103 296.822 90.7811 296.416 90.979C296.01 91.1769 295.548 91.2759 295.029 91.2759Z" fill="black"/>
</g>
<g clip-path="url(#clip3_565_13067)">
<rect x="20" y="101.333" width="24" height="24" rx="4" fill="#333333"/>
<path d="M26.1904 116.037V115.646L29.8115 109.833H30.1084V110.587H29.8545L26.7803 115.541V115.583H31.4014V116.037H26.1904ZM29.8936 117.833V115.904V115.728V109.833H30.3701V117.833H29.8936ZM35.2793 117.943C34.8522 117.943 34.4707 117.853 34.1348 117.673C33.8014 117.491 33.5371 117.241 33.3418 116.923C33.1491 116.606 33.0501 116.242 33.0449 115.833H33.5254C33.5358 116.318 33.7038 116.715 34.0293 117.025C34.3548 117.335 34.7715 117.49 35.2793 117.49C35.6699 117.49 36.0137 117.396 36.3105 117.208C36.61 117.018 36.8444 116.761 37.0137 116.435C37.1829 116.11 37.2663 115.742 37.2637 115.333C37.2637 114.901 37.1725 114.524 36.9902 114.201C36.8079 113.878 36.5645 113.628 36.2598 113.451C35.9551 113.274 35.6178 113.184 35.248 113.181C34.9564 113.181 34.6829 113.235 34.4277 113.341C34.1725 113.445 33.9551 113.58 33.7754 113.744L33.2246 113.666L33.6973 109.833H37.4473V110.287H34.1152L33.748 113.283H33.7871C33.9746 113.116 34.1973 112.982 34.4551 112.88C34.7155 112.776 34.998 112.724 35.3027 112.724C35.7507 112.724 36.1595 112.833 36.5293 113.052C36.9017 113.271 37.1973 113.576 37.416 113.966C37.6374 114.357 37.7467 114.811 37.7441 115.33C37.7415 115.83 37.6348 116.276 37.4238 116.669C37.2129 117.063 36.9212 117.374 36.5488 117.603C36.179 117.83 35.7559 117.943 35.2793 117.943Z" fill="#B3B3B3"/>
<path d="M66.6831 116.193V115.396L70.1987 109.833H70.7769V111.068H70.3862L67.73 115.271V115.333H72.4644V116.193H66.6831ZM70.4487 117.833V115.951V115.58V109.833H71.3706V117.833H70.4487Z" fill="#B3B3B3"/>
<path d="M107.125 117.943C106.667 117.943 106.254 117.852 105.887 117.669C105.52 117.487 105.225 117.237 105.004 116.919C104.783 116.602 104.661 116.24 104.641 115.833H105.578C105.615 116.195 105.779 116.495 106.07 116.732C106.365 116.966 106.716 117.083 107.125 117.083C107.453 117.083 107.745 117.007 108 116.853C108.258 116.699 108.46 116.488 108.605 116.22C108.754 115.949 108.828 115.643 108.828 115.302C108.828 114.953 108.751 114.642 108.598 114.369C108.447 114.093 108.238 113.875 107.973 113.716C107.707 113.557 107.404 113.477 107.062 113.474C106.818 113.472 106.566 113.509 106.309 113.587C106.051 113.663 105.839 113.761 105.672 113.88L104.766 113.771L105.25 109.833H109.406V110.693H106.063L105.781 113.052H105.828C105.992 112.922 106.198 112.814 106.445 112.728C106.693 112.642 106.951 112.599 107.219 112.599C107.708 112.599 108.145 112.716 108.527 112.951C108.913 113.182 109.215 113.5 109.434 113.904C109.655 114.307 109.766 114.768 109.766 115.287C109.766 115.797 109.651 116.253 109.422 116.654C109.195 117.052 108.883 117.367 108.484 117.599C108.086 117.828 107.633 117.943 107.125 117.943Z" fill="#B3B3B3"/>
<path d="M144.767 117.943C144.438 117.938 144.11 117.875 143.782 117.755C143.454 117.636 143.155 117.434 142.884 117.15C142.613 116.863 142.396 116.477 142.231 115.99C142.067 115.5 141.985 114.886 141.985 114.146C141.985 113.438 142.052 112.81 142.185 112.263C142.317 111.714 142.51 111.251 142.763 110.876C143.015 110.499 143.32 110.212 143.677 110.017C144.036 109.822 144.441 109.724 144.892 109.724C145.34 109.724 145.738 109.814 146.087 109.994C146.438 110.171 146.725 110.418 146.946 110.736C147.168 111.054 147.311 111.419 147.376 111.833H146.423C146.334 111.474 146.162 111.176 145.907 110.939C145.652 110.702 145.313 110.583 144.892 110.583C144.272 110.583 143.784 110.853 143.427 111.392C143.073 111.931 142.894 112.688 142.892 113.662H142.954C143.1 113.44 143.273 113.251 143.474 113.095C143.677 112.936 143.901 112.814 144.146 112.728C144.39 112.642 144.649 112.599 144.923 112.599C145.381 112.599 145.8 112.714 146.181 112.943C146.561 113.169 146.866 113.483 147.095 113.884C147.324 114.283 147.438 114.74 147.438 115.255C147.438 115.75 147.328 116.203 147.106 116.615C146.885 117.024 146.574 117.349 146.173 117.591C145.774 117.831 145.306 117.948 144.767 117.943ZM144.767 117.083C145.095 117.083 145.389 117.001 145.649 116.837C145.912 116.673 146.119 116.453 146.271 116.177C146.424 115.901 146.501 115.594 146.501 115.255C146.501 114.925 146.427 114.624 146.278 114.353C146.132 114.08 145.931 113.862 145.673 113.701C145.418 113.539 145.126 113.458 144.798 113.458C144.55 113.458 144.32 113.508 144.106 113.607C143.893 113.703 143.705 113.836 143.544 114.005C143.385 114.175 143.26 114.369 143.169 114.587C143.078 114.804 143.032 115.031 143.032 115.271C143.032 115.589 143.106 115.886 143.255 116.162C143.406 116.438 143.612 116.66 143.872 116.83C144.135 116.999 144.433 117.083 144.767 117.083Z" fill="#B3B3B3"/>
<path d="M180.222 117.833L183.8 110.755V110.693H179.675V109.833H184.8V110.74L181.237 117.833H180.222Z" fill="#B3B3B3"/>
<path d="M219.858 117.943C219.322 117.943 218.848 117.848 218.437 117.658C218.028 117.465 217.709 117.201 217.479 116.865C217.25 116.526 217.137 116.141 217.14 115.708C217.137 115.37 217.203 115.057 217.339 114.771C217.474 114.482 217.659 114.241 217.894 114.048C218.131 113.853 218.395 113.729 218.687 113.677V113.63C218.304 113.531 217.999 113.317 217.772 112.986C217.546 112.653 217.434 112.274 217.437 111.849C217.434 111.443 217.537 111.08 217.745 110.759C217.953 110.439 218.24 110.186 218.604 110.001C218.972 109.817 219.39 109.724 219.858 109.724C220.322 109.724 220.736 109.817 221.101 110.001C221.465 110.186 221.752 110.439 221.96 110.759C222.171 111.08 222.278 111.443 222.28 111.849C222.278 112.274 222.162 112.653 221.933 112.986C221.706 113.317 221.405 113.531 221.03 113.63V113.677C221.319 113.729 221.58 113.853 221.812 114.048C222.043 114.241 222.228 114.482 222.366 114.771C222.504 115.057 222.575 115.37 222.577 115.708C222.575 116.141 222.457 116.526 222.226 116.865C221.996 117.201 221.677 117.465 221.269 117.658C220.862 117.848 220.392 117.943 219.858 117.943ZM219.858 117.083C220.22 117.083 220.533 117.025 220.796 116.908C221.059 116.791 221.262 116.625 221.405 116.412C221.549 116.198 221.621 115.948 221.624 115.662C221.621 115.36 221.543 115.093 221.39 114.861C221.236 114.629 221.026 114.447 220.761 114.314C220.498 114.181 220.197 114.115 219.858 114.115C219.517 114.115 219.213 114.181 218.944 114.314C218.679 114.447 218.469 114.629 218.315 114.861C218.164 115.093 218.09 115.36 218.093 115.662C218.09 115.948 218.159 116.198 218.3 116.412C218.443 116.625 218.647 116.791 218.913 116.908C219.179 117.025 219.494 117.083 219.858 117.083ZM219.858 113.287C220.145 113.287 220.399 113.229 220.62 113.115C220.844 113 221.02 112.84 221.147 112.634C221.275 112.429 221.34 112.188 221.343 111.912C221.34 111.641 221.276 111.405 221.151 111.205C221.026 111.001 220.853 110.845 220.632 110.736C220.41 110.624 220.153 110.568 219.858 110.568C219.559 110.568 219.297 110.624 219.073 110.736C218.849 110.845 218.676 111.001 218.554 111.205C218.431 111.405 218.371 111.641 218.374 111.912C218.371 112.188 218.433 112.429 218.558 112.634C218.685 112.84 218.861 113 219.085 113.115C219.309 113.229 219.567 113.287 219.858 113.287Z" fill="#B3B3B3"/>
<path d="M257.372 109.724C257.7 109.727 258.028 109.789 258.356 109.912C258.684 110.034 258.984 110.237 259.254 110.521C259.525 110.802 259.743 111.186 259.907 111.673C260.071 112.16 260.153 112.771 260.153 113.505C260.153 114.216 260.085 114.848 259.95 115.4C259.817 115.949 259.624 116.413 259.372 116.791C259.122 117.168 258.817 117.455 258.458 117.65C258.101 117.845 257.697 117.943 257.247 117.943C256.799 117.943 256.399 117.854 256.047 117.677C255.698 117.498 255.412 117.249 255.188 116.931C254.967 116.611 254.825 116.24 254.762 115.818H255.715C255.801 116.185 255.972 116.488 256.227 116.728C256.485 116.965 256.825 117.083 257.247 117.083C257.864 117.083 258.351 116.814 258.708 116.275C259.067 115.736 259.247 114.974 259.247 113.99H259.184C259.038 114.208 258.865 114.397 258.665 114.556C258.464 114.715 258.241 114.837 257.997 114.923C257.752 115.009 257.491 115.052 257.215 115.052C256.757 115.052 256.336 114.939 255.954 114.712C255.573 114.483 255.269 114.169 255.04 113.771C254.813 113.37 254.7 112.912 254.7 112.396C254.7 111.906 254.809 111.458 255.028 111.052C255.249 110.643 255.559 110.318 255.958 110.076C256.359 109.833 256.83 109.716 257.372 109.724ZM257.372 110.583C257.043 110.583 256.748 110.666 256.485 110.83C256.224 110.991 256.017 111.21 255.864 111.486C255.713 111.759 255.637 112.063 255.637 112.396C255.637 112.729 255.71 113.033 255.856 113.306C256.004 113.577 256.206 113.793 256.461 113.955C256.719 114.113 257.012 114.193 257.34 114.193C257.588 114.193 257.818 114.145 258.032 114.048C258.245 113.949 258.431 113.815 258.59 113.646C258.752 113.474 258.878 113.28 258.969 113.064C259.06 112.845 259.106 112.617 259.106 112.38C259.106 112.068 259.03 111.775 258.879 111.501C258.731 111.228 258.525 111.007 258.262 110.837C258.002 110.668 257.705 110.583 257.372 110.583Z" fill="black"/>
<path d="M292.646 109.833V117.833H291.678V110.849H291.631L289.678 112.146V111.162L291.678 109.833H292.646ZM297.557 117.943C296.968 117.943 296.467 117.783 296.053 117.462C295.639 117.139 295.322 116.672 295.104 116.06C294.885 115.445 294.775 114.703 294.775 113.833C294.775 112.969 294.885 112.231 295.104 111.619C295.325 111.004 295.643 110.535 296.057 110.212C296.473 109.887 296.973 109.724 297.557 109.724C298.14 109.724 298.639 109.887 299.053 110.212C299.469 110.535 299.787 111.004 300.006 111.619C300.227 112.231 300.338 112.969 300.338 113.833C300.338 114.703 300.229 115.445 300.01 116.06C299.791 116.672 299.475 117.139 299.061 117.462C298.646 117.783 298.145 117.943 297.557 117.943ZM297.557 117.083C298.14 117.083 298.593 116.802 298.916 116.24C299.239 115.677 299.4 114.875 299.4 113.833C299.4 113.141 299.326 112.551 299.178 112.064C299.032 111.577 298.821 111.206 298.545 110.951C298.271 110.695 297.942 110.568 297.557 110.568C296.979 110.568 296.527 110.853 296.201 111.423C295.876 111.991 295.713 112.794 295.713 113.833C295.713 114.526 295.786 115.115 295.932 115.599C296.077 116.083 296.287 116.452 296.561 116.705C296.837 116.957 297.169 117.083 297.557 117.083Z" fill="black"/>
</g>
<g clip-path="url(#clip4_565_13067)">
<rect x="20" y="128" width="24" height="24" rx="4" fill="#333333"/>
<path d="M26.1152 142.703V142.312L29.7363 136.5H30.0332V137.254H29.7793L26.7051 142.207V142.25H31.3262V142.703H26.1152ZM29.8184 144.5V142.57V142.395V136.5H30.2949V144.5H29.8184ZM35.415 144.609C35.0791 144.607 34.7601 144.535 34.458 144.395C34.1559 144.251 33.8877 144.03 33.6533 143.73C33.4215 143.428 33.238 143.04 33.1025 142.566C32.9697 142.09 32.9033 141.52 32.9033 140.855C32.9033 140.259 32.9502 139.693 33.0439 139.156C33.1403 138.62 33.2913 138.145 33.4971 137.73C33.7028 137.314 33.971 136.987 34.3018 136.75C34.6351 136.51 35.0374 136.391 35.5088 136.391C35.9202 136.391 36.2822 136.48 36.5947 136.66C36.9098 136.837 37.1611 137.085 37.3486 137.402C37.5361 137.717 37.6494 138.083 37.6885 138.5H37.2041C37.1494 138.013 36.9749 137.616 36.6807 137.309C36.389 136.999 35.9984 136.844 35.5088 136.844C34.8161 136.844 34.2861 137.182 33.9189 137.859C33.5544 138.536 33.3721 139.505 33.3721 140.766H33.415C33.5192 140.516 33.6729 140.296 33.876 140.105C34.0817 139.913 34.3187 139.763 34.5869 139.656C34.8551 139.549 35.1377 139.496 35.4346 139.496C35.8669 139.496 36.2614 139.607 36.6182 139.828C36.9775 140.049 37.2653 140.353 37.4814 140.738C37.6976 141.124 37.8057 141.56 37.8057 142.047C37.8057 142.508 37.7054 142.934 37.5049 143.324C37.3044 143.712 37.0244 144.025 36.665 144.262C36.3083 144.496 35.8916 144.612 35.415 144.609ZM35.415 144.156C35.7796 144.156 36.1051 144.061 36.3916 143.871C36.6807 143.681 36.9085 143.427 37.0752 143.109C37.2419 142.789 37.3252 142.435 37.3252 142.047C37.3252 141.656 37.2393 141.302 37.0674 140.984C36.8955 140.667 36.6624 140.415 36.3682 140.23C36.0765 140.043 35.7484 139.949 35.3838 139.949C35.0973 139.949 34.8317 140.008 34.5869 140.125C34.3421 140.24 34.1312 140.398 33.9541 140.602C33.7796 140.805 33.6507 141.038 33.5674 141.301C33.4867 141.561 33.4645 141.836 33.501 142.125C33.5609 142.544 33.6781 142.906 33.8525 143.211C34.0296 143.513 34.251 143.746 34.5166 143.91C34.7848 144.074 35.0843 144.156 35.415 144.156Z" fill="white"/>
<path d="M68.0986 136.5V144.5H67.1299V137.516H67.083L65.1299 138.812V137.828L67.1299 136.5H68.0986ZM73.2119 136.5V144.5H72.2432V137.516H72.1963L70.2432 138.812V137.828L72.2432 136.5H73.2119Z" fill="#B3B3B3"/>
<path d="M104.897 136.5V144.5H103.928V137.516H103.881L101.928 138.812V137.828L103.928 136.5H104.897ZM107.198 144.5V143.797L109.838 140.906C110.148 140.568 110.403 140.273 110.604 140.023C110.805 139.771 110.953 139.534 111.049 139.312C111.148 139.089 111.198 138.854 111.198 138.609C111.198 138.328 111.13 138.085 110.995 137.879C110.862 137.673 110.68 137.514 110.448 137.402C110.216 137.29 109.956 137.234 109.667 137.234C109.359 137.234 109.091 137.298 108.862 137.426C108.635 137.551 108.459 137.727 108.334 137.953C108.212 138.18 108.151 138.445 108.151 138.75H107.229C107.229 138.281 107.337 137.87 107.553 137.516C107.769 137.161 108.064 136.885 108.436 136.687C108.811 136.49 109.232 136.391 109.698 136.391C110.167 136.391 110.582 136.49 110.944 136.687C111.306 136.885 111.59 137.152 111.795 137.488C112.001 137.824 112.104 138.198 112.104 138.609C112.104 138.904 112.051 139.191 111.944 139.473C111.84 139.751 111.657 140.062 111.397 140.406C111.139 140.747 110.781 141.164 110.323 141.656L108.526 143.578V143.641H112.245V144.5H107.198Z" fill="#B3B3B3"/>
<path d="M142.296 136.5V144.5H141.328V137.516H141.281L139.328 138.812V137.828L141.328 136.5H142.296ZM147.3 144.609C146.785 144.609 146.325 144.521 145.921 144.344C145.52 144.167 145.201 143.921 144.964 143.605C144.73 143.288 144.602 142.919 144.582 142.5H145.566C145.587 142.758 145.675 142.98 145.832 143.168C145.988 143.353 146.192 143.496 146.445 143.598C146.697 143.699 146.977 143.75 147.285 143.75C147.628 143.75 147.933 143.69 148.199 143.57C148.464 143.451 148.673 143.284 148.824 143.07C148.975 142.857 149.05 142.609 149.05 142.328C149.05 142.034 148.977 141.775 148.832 141.551C148.686 141.324 148.472 141.147 148.191 141.02C147.91 140.892 147.566 140.828 147.16 140.828H146.519V139.969H147.16C147.477 139.969 147.756 139.911 147.996 139.797C148.238 139.682 148.427 139.521 148.562 139.312C148.7 139.104 148.769 138.859 148.769 138.578C148.769 138.307 148.709 138.072 148.589 137.871C148.47 137.671 148.3 137.514 148.082 137.402C147.865 137.29 147.61 137.234 147.316 137.234C147.04 137.234 146.779 137.285 146.535 137.387C146.292 137.486 146.095 137.63 145.941 137.82C145.787 138.008 145.704 138.234 145.691 138.5H144.753C144.769 138.081 144.895 137.714 145.132 137.398C145.369 137.081 145.679 136.833 146.062 136.656C146.447 136.479 146.871 136.391 147.332 136.391C147.826 136.391 148.251 136.491 148.605 136.691C148.959 136.889 149.231 137.151 149.421 137.477C149.611 137.802 149.707 138.154 149.707 138.531C149.707 138.982 149.588 139.366 149.351 139.684C149.117 140.001 148.798 140.221 148.394 140.344V140.406C148.899 140.49 149.294 140.704 149.578 141.051C149.861 141.395 150.003 141.82 150.003 142.328C150.003 142.763 149.885 143.154 149.648 143.5C149.414 143.844 149.093 144.115 148.687 144.312C148.281 144.51 147.819 144.609 147.3 144.609Z" fill="#B3B3B3"/>
<rect x="170.286" y="128" width="24" height="24" rx="4" fill="white"/>
<path d="M179.841 136.5V144.5H178.872V137.516H178.825L176.872 138.812V137.828L178.872 136.5H179.841ZM181.954 142.859V142.062L185.47 136.5H186.048V137.734H185.657L183.001 141.937V142H187.735V142.859H181.954ZM185.72 144.5V142.617V142.246V136.5H186.642V144.5H185.72Z" fill="#B5B5B5"/>
<path d="M217.595 136.5V144.5H216.626V137.516H216.579L214.626 138.812V137.828L216.626 136.5H217.595ZM222.396 144.609C221.937 144.609 221.524 144.518 221.157 144.336C220.79 144.154 220.496 143.904 220.274 143.586C220.053 143.268 219.932 142.906 219.911 142.5H220.849C220.885 142.862 221.049 143.161 221.341 143.398C221.635 143.633 221.987 143.75 222.396 143.75C222.724 143.75 223.015 143.673 223.271 143.52C223.528 143.366 223.73 143.155 223.876 142.887C224.024 142.616 224.099 142.31 224.099 141.969C224.099 141.62 224.022 141.309 223.868 141.035C223.717 140.759 223.509 140.542 223.243 140.383C222.978 140.224 222.674 140.143 222.333 140.141C222.088 140.138 221.837 140.176 221.579 140.254C221.321 140.329 221.109 140.427 220.942 140.547L220.036 140.437L220.521 136.5H224.677V137.359H221.333L221.052 139.719H221.099C221.263 139.589 221.468 139.48 221.716 139.395C221.963 139.309 222.221 139.266 222.489 139.266C222.979 139.266 223.415 139.383 223.798 139.617C224.183 139.849 224.485 140.167 224.704 140.57C224.925 140.974 225.036 141.435 225.036 141.953C225.036 142.464 224.922 142.919 224.692 143.32C224.466 143.719 224.153 144.034 223.755 144.266C223.356 144.495 222.903 144.609 222.396 144.609Z" fill="#B3B3B3"/>
<path d="M255.081 136.5V144.5H254.112V137.516H254.065L252.112 138.812V137.828L254.112 136.5H255.081ZM260.038 144.609C259.709 144.604 259.381 144.542 259.053 144.422C258.725 144.302 258.426 144.1 258.155 143.816C257.884 143.53 257.667 143.143 257.502 142.656C257.338 142.167 257.256 141.552 257.256 140.812C257.256 140.104 257.323 139.477 257.456 138.93C257.588 138.38 257.781 137.918 258.034 137.543C258.286 137.165 258.591 136.879 258.948 136.684C259.307 136.488 259.712 136.391 260.163 136.391C260.611 136.391 261.009 136.48 261.358 136.66C261.709 136.837 261.996 137.085 262.217 137.402C262.439 137.72 262.582 138.086 262.647 138.5H261.694C261.605 138.141 261.433 137.842 261.178 137.605C260.923 137.368 260.584 137.25 260.163 137.25C259.543 137.25 259.055 137.52 258.698 138.059C258.344 138.598 258.165 139.354 258.163 140.328H258.225C258.371 140.107 258.544 139.918 258.745 139.762C258.948 139.603 259.172 139.48 259.417 139.395C259.661 139.309 259.92 139.266 260.194 139.266C260.652 139.266 261.071 139.38 261.452 139.609C261.832 139.836 262.137 140.15 262.366 140.551C262.595 140.949 262.709 141.406 262.709 141.922C262.709 142.417 262.599 142.87 262.377 143.281C262.156 143.69 261.845 144.016 261.444 144.258C261.045 144.497 260.577 144.615 260.038 144.609ZM260.038 143.75C260.366 143.75 260.66 143.668 260.92 143.504C261.183 143.34 261.39 143.12 261.542 142.844C261.695 142.568 261.772 142.26 261.772 141.922C261.772 141.591 261.698 141.29 261.549 141.02C261.403 140.746 261.202 140.529 260.944 140.367C260.689 140.206 260.397 140.125 260.069 140.125C259.821 140.125 259.591 140.174 259.377 140.273C259.164 140.37 258.976 140.503 258.815 140.672C258.656 140.841 258.531 141.035 258.44 141.254C258.349 141.47 258.303 141.698 258.303 141.937C258.303 142.255 258.377 142.552 258.526 142.828C258.677 143.104 258.883 143.327 259.143 143.496C259.406 143.665 259.704 143.75 260.038 143.75Z" fill="black"/>
<path d="M292.942 136.5V144.5H291.973V137.516H291.926L289.973 138.812V137.828L291.973 136.5H292.942ZM295.493 144.5L299.071 137.422V137.359H294.946V136.5H300.071V137.406L296.508 144.5H295.493Z" fill="black"/>
</g>
<g clip-path="url(#clip5_565_13067)">
<rect x="20" y="154.667" width="24" height="24" rx="4" fill="#333333"/>
<path d="M26.3462 169.37V168.979L29.9673 163.167H30.2642V163.92H30.0103L26.936 168.874V168.917H31.5571V169.37H26.3462ZM30.0493 171.167V169.237V169.061V163.167H30.5259V171.167H30.0493ZM33.4663 171.167L37.1812 163.663V163.62H32.9116V163.167H37.7124V163.635L33.9937 171.167H33.4663Z" fill="#B3B3B3"/>
<path d="M67.2661 163.167V171.167H66.2974V164.182H66.2505L64.2974 165.479V164.495L66.2974 163.167H67.2661ZM72.1294 171.276C71.5929 171.276 71.119 171.181 70.7075 170.991C70.2987 170.798 69.9797 170.534 69.7505 170.198C69.5213 169.859 69.408 169.474 69.4106 169.042C69.408 168.703 69.4744 168.39 69.6099 168.104C69.7453 167.815 69.9302 167.574 70.1646 167.381C70.4015 167.186 70.6659 167.062 70.9575 167.01V166.963C70.5747 166.864 70.27 166.65 70.0435 166.319C69.8169 165.986 69.7049 165.607 69.7075 165.182C69.7049 164.776 69.8078 164.413 70.0161 164.092C70.2244 163.772 70.5109 163.519 70.8755 163.334C71.2427 163.15 71.6606 163.057 72.1294 163.057C72.5929 163.057 73.007 163.15 73.3716 163.334C73.7362 163.519 74.0226 163.772 74.231 164.092C74.4419 164.413 74.5487 164.776 74.5513 165.182C74.5487 165.607 74.4328 165.986 74.2036 166.319C73.9771 166.65 73.6763 166.864 73.3013 166.963V167.01C73.5903 167.062 73.8507 167.186 74.0825 167.381C74.3143 167.574 74.4992 167.815 74.6372 168.104C74.7752 168.39 74.8455 168.703 74.8481 169.042C74.8455 169.474 74.7284 169.859 74.4966 170.198C74.2674 170.534 73.9484 170.798 73.5396 170.991C73.1333 171.181 72.6632 171.276 72.1294 171.276ZM72.1294 170.417C72.4914 170.417 72.8039 170.358 73.0669 170.241C73.3299 170.124 73.533 169.958 73.6763 169.745C73.8195 169.531 73.8924 169.281 73.895 168.995C73.8924 168.693 73.8143 168.426 73.6606 168.194C73.507 167.962 73.2974 167.78 73.0317 167.647C72.7687 167.514 72.4679 167.448 72.1294 167.448C71.7882 167.448 71.4836 167.514 71.2153 167.647C70.9497 167.78 70.7401 167.962 70.5864 168.194C70.4354 168.426 70.3612 168.693 70.3638 168.995C70.3612 169.281 70.4302 169.531 70.5708 169.745C70.714 169.958 70.9185 170.124 71.1841 170.241C71.4497 170.358 71.7648 170.417 72.1294 170.417ZM72.1294 166.62C72.4159 166.62 72.6698 166.562 72.8911 166.448C73.1151 166.333 73.2909 166.173 73.4185 165.967C73.5461 165.762 73.6112 165.521 73.6138 165.245C73.6112 164.974 73.5474 164.738 73.4224 164.538C73.2974 164.334 73.1242 164.178 72.9028 164.069C72.6815 163.957 72.4237 163.901 72.1294 163.901C71.8299 163.901 71.5682 163.957 71.3442 164.069C71.1203 164.178 70.9471 164.334 70.8247 164.538C70.7023 164.738 70.6424 164.974 70.645 165.245C70.6424 165.521 70.7036 165.762 70.8286 165.967C70.9562 166.173 71.132 166.333 71.356 166.448C71.5799 166.562 71.8377 166.62 72.1294 166.62Z" fill="#B3B3B3"/>
<rect x="95.1431" y="154.667" width="24" height="24" rx="4" fill="#01D68A"/>
<path d="M104.795 163.167V171.167H103.826V164.182H103.779L101.826 165.479V164.495L103.826 163.167H104.795ZM109.643 163.057C109.971 163.06 110.299 163.122 110.627 163.245C110.955 163.367 111.255 163.57 111.525 163.854C111.796 164.135 112.014 164.519 112.178 165.006C112.342 165.493 112.424 166.104 112.424 166.838C112.424 167.549 112.356 168.181 112.221 168.733C112.088 169.282 111.895 169.746 111.643 170.124C111.393 170.501 111.088 170.788 110.729 170.983C110.372 171.178 109.968 171.276 109.518 171.276C109.07 171.276 108.67 171.187 108.318 171.01C107.969 170.831 107.683 170.582 107.459 170.264C107.238 169.944 107.096 169.573 107.033 169.151H107.986C108.072 169.518 108.243 169.821 108.498 170.061C108.756 170.298 109.096 170.417 109.518 170.417C110.135 170.417 110.622 170.147 110.979 169.608C111.338 169.069 111.518 168.307 111.518 167.323H111.455C111.309 167.542 111.136 167.73 110.936 167.889C110.735 168.048 110.512 168.17 110.268 168.256C110.023 168.342 109.762 168.385 109.486 168.385C109.028 168.385 108.607 168.272 108.225 168.045C107.844 167.816 107.54 167.502 107.311 167.104C107.084 166.703 106.971 166.245 106.971 165.729C106.971 165.239 107.08 164.792 107.299 164.385C107.52 163.976 107.83 163.651 108.229 163.409C108.63 163.167 109.101 163.049 109.643 163.057ZM109.643 163.917C109.314 163.917 109.019 163.999 108.756 164.163C108.495 164.324 108.288 164.543 108.135 164.819C107.984 165.092 107.908 165.396 107.908 165.729C107.908 166.062 107.981 166.366 108.127 166.639C108.275 166.91 108.477 167.126 108.732 167.288C108.99 167.446 109.283 167.526 109.611 167.526C109.859 167.526 110.089 167.478 110.303 167.381C110.516 167.282 110.702 167.148 110.861 166.979C111.023 166.807 111.149 166.613 111.24 166.397C111.331 166.178 111.377 165.95 111.377 165.713C111.377 165.401 111.301 165.108 111.15 164.834C111.002 164.561 110.796 164.34 110.533 164.17C110.273 164.001 109.976 163.917 109.643 163.917Z" fill="black"/>
<path d="M138.775 171.167V170.463L141.416 167.573C141.725 167.234 141.981 166.94 142.181 166.69C142.382 166.437 142.53 166.2 142.626 165.979C142.725 165.755 142.775 165.521 142.775 165.276C142.775 164.995 142.707 164.751 142.572 164.545C142.439 164.34 142.257 164.181 142.025 164.069C141.793 163.957 141.533 163.901 141.244 163.901C140.936 163.901 140.668 163.965 140.439 164.092C140.212 164.217 140.037 164.393 139.912 164.62C139.789 164.846 139.728 165.112 139.728 165.417H138.806C138.806 164.948 138.914 164.536 139.13 164.182C139.347 163.828 139.641 163.552 140.013 163.354C140.388 163.156 140.809 163.057 141.275 163.057C141.744 163.057 142.159 163.156 142.521 163.354C142.883 163.552 143.167 163.819 143.373 164.155C143.578 164.491 143.681 164.864 143.681 165.276C143.681 165.57 143.628 165.858 143.521 166.139C143.417 166.418 143.235 166.729 142.974 167.073C142.716 167.414 142.358 167.831 141.9 168.323L140.103 170.245V170.307H143.822V171.167H138.775ZM148.044 171.276C147.456 171.276 146.955 171.116 146.541 170.795C146.126 170.472 145.81 170.005 145.591 169.393C145.373 168.778 145.263 168.036 145.263 167.167C145.263 166.302 145.373 165.564 145.591 164.952C145.813 164.337 146.13 163.868 146.544 163.545C146.961 163.22 147.461 163.057 148.044 163.057C148.628 163.057 149.126 163.22 149.541 163.545C149.957 163.868 150.275 164.337 150.494 164.952C150.715 165.564 150.826 166.302 150.826 167.167C150.826 168.036 150.716 168.778 150.498 169.393C150.279 170.005 149.962 170.472 149.548 170.795C149.134 171.116 148.633 171.276 148.044 171.276ZM148.044 170.417C148.628 170.417 149.081 170.135 149.404 169.573C149.727 169.01 149.888 168.208 149.888 167.167C149.888 166.474 149.814 165.884 149.666 165.397C149.52 164.91 149.309 164.539 149.033 164.284C148.759 164.028 148.43 163.901 148.044 163.901C147.466 163.901 147.014 164.186 146.689 164.756C146.363 165.324 146.201 166.127 146.201 167.167C146.201 167.859 146.274 168.448 146.419 168.932C146.565 169.417 146.775 169.785 147.048 170.038C147.324 170.29 147.656 170.417 148.044 170.417Z" fill="#B3B3B3"/>
<path d="M177.227 171.167V170.463L179.868 167.573C180.178 167.234 180.433 166.94 180.633 166.69C180.834 166.437 180.982 166.2 181.079 165.979C181.178 165.755 181.227 165.521 181.227 165.276C181.227 164.995 181.159 164.751 181.024 164.545C180.891 164.34 180.709 164.181 180.477 164.069C180.245 163.957 179.985 163.901 179.696 163.901C179.389 163.901 179.12 163.965 178.891 164.092C178.665 164.217 178.489 164.393 178.364 164.62C178.241 164.846 178.18 165.112 178.18 165.417H177.258C177.258 164.948 177.366 164.536 177.583 164.182C177.799 163.828 178.093 163.552 178.465 163.354C178.84 163.156 179.261 163.057 179.727 163.057C180.196 163.057 180.611 163.156 180.973 163.354C181.335 163.552 181.619 163.819 181.825 164.155C182.03 164.491 182.133 164.864 182.133 165.276C182.133 165.57 182.08 165.858 181.973 166.139C181.869 166.418 181.687 166.729 181.426 167.073C181.168 167.414 180.81 167.831 180.352 168.323L178.555 170.245V170.307H182.274V171.167H177.227ZM186.7 163.167V171.167H185.731V164.182H185.684L183.731 165.479V164.495L185.731 163.167H186.7Z" fill="#B3B3B3"/>
<path d="M214.025 171.167V170.463L216.666 167.573C216.975 167.234 217.231 166.94 217.431 166.69C217.632 166.437 217.78 166.2 217.876 165.979C217.975 165.755 218.025 165.521 218.025 165.276C218.025 164.995 217.957 164.751 217.822 164.545C217.689 164.34 217.507 164.181 217.275 164.069C217.043 163.957 216.783 163.901 216.494 163.901C216.186 163.901 215.918 163.965 215.689 164.092C215.462 164.217 215.287 164.393 215.162 164.62C215.039 164.846 214.978 165.112 214.978 165.417H214.056C214.056 164.948 214.164 164.536 214.38 164.182C214.597 163.828 214.891 163.552 215.263 163.354C215.638 163.156 216.059 163.057 216.525 163.057C216.994 163.057 217.409 163.156 217.771 163.354C218.133 163.552 218.417 163.819 218.623 164.155C218.828 164.491 218.931 164.864 218.931 165.276C218.931 165.57 218.878 165.858 218.771 166.139C218.667 166.418 218.485 166.729 218.224 167.073C217.966 167.414 217.608 167.831 217.15 168.323L215.353 170.245V170.307H219.072V171.167H214.025ZM220.685 171.167V170.463L223.326 167.573C223.636 167.234 223.891 166.94 224.091 166.69C224.292 166.437 224.44 166.2 224.537 165.979C224.636 165.755 224.685 165.521 224.685 165.276C224.685 164.995 224.617 164.751 224.482 164.545C224.349 164.34 224.167 164.181 223.935 164.069C223.703 163.957 223.443 163.901 223.154 163.901C222.847 163.901 222.578 163.965 222.349 164.092C222.123 164.217 221.947 164.393 221.822 164.62C221.699 164.846 221.638 165.112 221.638 165.417H220.716C220.716 164.948 220.824 164.536 221.041 164.182C221.257 163.828 221.551 163.552 221.923 163.354C222.298 163.156 222.719 163.057 223.185 163.057C223.654 163.057 224.069 163.156 224.431 163.354C224.793 163.552 225.077 163.819 225.283 164.155C225.488 164.491 225.591 164.864 225.591 165.276C225.591 165.57 225.538 165.858 225.431 166.139C225.327 166.418 225.145 166.729 224.884 167.073C224.626 167.414 224.268 167.831 223.81 168.323L222.013 170.245V170.307H225.732V171.167H220.685Z" fill="#B3B3B3"/>
<path d="M251.425 171.167V170.463L254.065 167.573C254.375 167.234 254.631 166.94 254.831 166.69C255.032 166.437 255.18 166.2 255.276 165.979C255.375 165.755 255.425 165.521 255.425 165.276C255.425 164.995 255.357 164.751 255.222 164.545C255.089 164.34 254.907 164.181 254.675 164.069C254.443 163.957 254.183 163.901 253.894 163.901C253.586 163.901 253.318 163.965 253.089 164.092C252.862 164.217 252.687 164.393 252.562 164.62C252.439 164.846 252.378 165.112 252.378 165.417H251.456C251.456 164.948 251.564 164.536 251.78 164.182C251.996 163.828 252.291 163.552 252.663 163.354C253.038 163.156 253.459 163.057 253.925 163.057C254.394 163.057 254.809 163.156 255.171 163.354C255.533 163.552 255.817 163.819 256.022 164.155C256.228 164.491 256.331 164.864 256.331 165.276C256.331 165.57 256.278 165.858 256.171 166.139C256.067 166.418 255.884 166.729 255.624 167.073C255.366 167.414 255.008 167.831 254.55 168.323L252.753 170.245V170.307H256.472V171.167H251.425ZM260.788 171.276C260.272 171.276 259.813 171.187 259.409 171.01C259.008 170.833 258.689 170.587 258.452 170.272C258.218 169.954 258.09 169.586 258.069 169.167H259.054C259.075 169.424 259.163 169.647 259.319 169.834C259.476 170.019 259.68 170.163 259.933 170.264C260.185 170.366 260.465 170.417 260.772 170.417C261.116 170.417 261.421 170.357 261.687 170.237C261.952 170.117 262.16 169.95 262.312 169.737C262.463 169.523 262.538 169.276 262.538 168.995C262.538 168.7 262.465 168.441 262.319 168.217C262.174 167.991 261.96 167.814 261.679 167.686C261.397 167.558 261.054 167.495 260.647 167.495H260.007V166.635H260.647C260.965 166.635 261.244 166.578 261.483 166.463C261.726 166.349 261.914 166.187 262.05 165.979C262.188 165.771 262.257 165.526 262.257 165.245C262.257 164.974 262.197 164.738 262.077 164.538C261.957 164.337 261.788 164.181 261.569 164.069C261.353 163.957 261.098 163.901 260.804 163.901C260.528 163.901 260.267 163.952 260.022 164.053C259.78 164.152 259.582 164.297 259.429 164.487C259.275 164.674 259.192 164.901 259.179 165.167H258.241C258.257 164.747 258.383 164.38 258.62 164.065C258.857 163.747 259.167 163.5 259.55 163.323C259.935 163.146 260.358 163.057 260.819 163.057C261.314 163.057 261.739 163.157 262.093 163.358C262.447 163.556 262.719 163.818 262.909 164.143C263.099 164.469 263.194 164.82 263.194 165.198C263.194 165.648 263.076 166.032 262.839 166.35C262.604 166.668 262.285 166.888 261.882 167.01V167.073C262.387 167.156 262.782 167.371 263.065 167.717C263.349 168.061 263.491 168.487 263.491 168.995C263.491 169.43 263.373 169.82 263.136 170.167C262.901 170.51 262.581 170.781 262.175 170.979C261.769 171.177 261.306 171.276 260.788 171.276Z" fill="black"/>
<path d="M289.055 171.167V170.463L291.696 167.573C292.006 167.234 292.261 166.94 292.461 166.69C292.662 166.437 292.81 166.2 292.907 165.979C293.006 165.755 293.055 165.521 293.055 165.276C293.055 164.995 292.987 164.751 292.852 164.545C292.719 164.34 292.537 164.181 292.305 164.069C292.073 163.957 291.813 163.901 291.524 163.901C291.217 163.901 290.948 163.965 290.719 164.092C290.493 164.217 290.317 164.393 290.192 164.62C290.069 164.846 290.008 165.112 290.008 165.417H289.086C289.086 164.948 289.194 164.536 289.411 164.182C289.627 163.828 289.921 163.552 290.293 163.354C290.668 163.156 291.089 163.057 291.555 163.057C292.024 163.057 292.439 163.156 292.801 163.354C293.163 163.552 293.447 163.819 293.653 164.155C293.859 164.491 293.961 164.864 293.961 165.276C293.961 165.57 293.908 165.858 293.801 166.139C293.697 166.418 293.515 166.729 293.254 167.073C292.997 167.414 292.639 167.831 292.18 168.323L290.383 170.245V170.307H294.102V171.167H289.055ZM295.356 169.526V168.729L298.872 163.167H299.45V164.401H299.059L296.403 168.604V168.667H301.137V169.526H295.356ZM299.122 171.167V169.284V168.913V163.167H300.043V171.167H299.122Z" fill="black"/>
</g>
<g clip-path="url(#clip6_565_13067)">
<rect x="20" y="181.333" width="24" height="24" rx="4" fill="#333333"/>
<path d="M26.0615 196.037V195.646L29.6826 189.833H29.9795V190.587H29.7256L26.6514 195.541V195.583H31.2725V196.037H26.0615ZM29.7646 197.833V195.904V195.728V189.833H30.2412V197.833H29.7646ZM35.3613 197.943C34.877 197.943 34.4408 197.847 34.0527 197.654C33.6647 197.458 33.3574 197.195 33.1309 196.865C32.9069 196.534 32.7962 196.163 32.7988 195.751C32.7962 195.426 32.8652 195.12 33.0059 194.833C33.1491 194.547 33.3444 194.304 33.5918 194.103C33.8392 193.9 34.1217 193.764 34.4395 193.697V193.662C34.0358 193.534 33.7064 193.298 33.4512 192.955C33.1986 192.611 33.0723 192.222 33.0723 191.787C33.0723 191.399 33.1725 191.05 33.373 190.74C33.5762 190.427 33.8509 190.18 34.1973 189.998C34.5436 189.815 34.9316 189.724 35.3613 189.724C35.7832 189.724 36.1673 189.815 36.5137 189.998C36.86 190.177 37.1348 190.423 37.3379 190.736C37.5436 191.046 37.6465 191.396 37.6465 191.787C37.6465 192.219 37.5202 192.608 37.2676 192.955C37.0176 193.298 36.6895 193.534 36.2832 193.662V193.697C36.5983 193.762 36.8783 193.896 37.123 194.099C37.3704 194.3 37.5645 194.544 37.7051 194.833C37.8483 195.12 37.9212 195.426 37.9238 195.751C37.9212 196.163 37.8066 196.534 37.5801 196.865C37.3561 197.195 37.0501 197.458 36.6621 197.654C36.2767 197.847 35.8431 197.943 35.3613 197.943ZM35.3613 197.49C35.7598 197.49 36.1152 197.412 36.4277 197.255C36.7402 197.099 36.9863 196.888 37.166 196.623C37.3457 196.354 37.4368 196.055 37.4395 195.724C37.4368 195.388 37.3431 195.083 37.1582 194.81C36.9759 194.537 36.7285 194.319 36.416 194.158C36.1035 193.996 35.752 193.916 35.3613 193.916C34.9681 193.916 34.6139 193.996 34.2988 194.158C33.9863 194.319 33.7376 194.537 33.5527 194.81C33.3704 195.083 33.2806 195.388 33.2832 195.724C33.2806 196.055 33.3691 196.354 33.5488 196.623C33.7311 196.888 33.9785 197.099 34.291 197.255C34.6061 197.412 34.9629 197.49 35.3613 197.49ZM35.3613 193.494C35.6973 193.494 36.0007 193.418 36.2715 193.267C36.5449 193.116 36.7624 192.913 36.9238 192.658C37.0853 192.403 37.166 192.119 37.166 191.806C37.166 191.494 37.0853 191.215 36.9238 190.97C36.765 190.723 36.5488 190.529 36.2754 190.388C36.0046 190.245 35.6999 190.173 35.3613 190.173C35.0202 190.173 34.7129 190.245 34.4395 190.388C34.166 190.529 33.9499 190.723 33.791 190.97C33.6322 191.215 33.5527 191.494 33.5527 191.806C33.5527 192.119 33.6322 192.403 33.791 192.658C33.9525 192.913 34.1699 193.116 34.4434 193.267C34.7168 193.418 35.0228 193.494 35.3613 193.494Z" fill="#B3B3B3"/>
<path d="M63.7231 197.833V197.13L66.3638 194.24C66.6737 193.901 66.9289 193.607 67.1294 193.357C67.3299 193.104 67.4784 192.867 67.5747 192.646C67.6737 192.422 67.7231 192.188 67.7231 191.943C67.7231 191.662 67.6554 191.418 67.52 191.212C67.3872 191.007 67.2049 190.848 66.9731 190.736C66.7414 190.624 66.481 190.568 66.1919 190.568C65.8846 190.568 65.6164 190.632 65.3872 190.759C65.1606 190.884 64.9849 191.06 64.8599 191.287C64.7375 191.513 64.6763 191.779 64.6763 192.083H63.7544C63.7544 191.615 63.8625 191.203 64.0786 190.849C64.2948 190.495 64.589 190.219 64.9614 190.021C65.3364 189.823 65.757 189.724 66.2231 189.724C66.6919 189.724 67.1073 189.823 67.4692 190.021C67.8312 190.219 68.1151 190.486 68.3208 190.822C68.5265 191.158 68.6294 191.531 68.6294 191.943C68.6294 192.237 68.576 192.525 68.4692 192.806C68.3651 193.085 68.1828 193.396 67.9224 193.74C67.6646 194.081 67.3065 194.498 66.8481 194.99L65.0513 196.912V196.974H68.77V197.833H63.7231ZM72.8833 197.943C72.425 197.943 72.0122 197.852 71.645 197.669C71.2778 197.487 70.9836 197.237 70.7622 196.919C70.5409 196.602 70.4198 196.24 70.3989 195.833H71.3364C71.3729 196.195 71.5369 196.495 71.8286 196.732C72.1229 196.966 72.4744 197.083 72.8833 197.083C73.2114 197.083 73.5031 197.007 73.7583 196.853C74.0161 196.699 74.2179 196.488 74.3638 196.22C74.5122 195.949 74.5864 195.643 74.5864 195.302C74.5864 194.953 74.5096 194.642 74.356 194.369C74.2049 194.093 73.9966 193.875 73.731 193.716C73.4653 193.557 73.1619 193.477 72.8208 193.474C72.576 193.472 72.3247 193.509 72.0669 193.587C71.8091 193.663 71.5968 193.761 71.4302 193.88L70.5239 193.771L71.0083 189.833H75.1646V190.693H71.8208L71.5396 193.052H71.5864C71.7505 192.922 71.9562 192.814 72.2036 192.728C72.451 192.642 72.7088 192.599 72.9771 192.599C73.4666 192.599 73.9028 192.716 74.2856 192.951C74.6711 193.182 74.9731 193.5 75.1919 193.904C75.4132 194.307 75.5239 194.768 75.5239 195.287C75.5239 195.797 75.4093 196.253 75.1802 196.654C74.9536 197.052 74.6411 197.367 74.2427 197.599C73.8442 197.828 73.3911 197.943 72.8833 197.943Z" fill="#B3B3B3"/>
<path d="M101.209 197.833V197.13L103.85 194.24C104.16 193.901 104.415 193.607 104.615 193.357C104.816 193.104 104.964 192.867 105.061 192.646C105.16 192.422 105.209 192.188 105.209 191.943C105.209 191.662 105.141 191.418 105.006 191.212C104.873 191.007 104.691 190.848 104.459 190.736C104.227 190.624 103.967 190.568 103.678 190.568C103.37 190.568 103.102 190.632 102.873 190.759C102.646 190.884 102.471 191.06 102.346 191.287C102.223 191.513 102.162 191.779 102.162 192.083H101.24C101.24 191.615 101.348 191.203 101.564 190.849C101.781 190.495 102.075 190.219 102.447 190.021C102.822 189.823 103.243 189.724 103.709 189.724C104.178 189.724 104.593 189.823 104.955 190.021C105.317 190.219 105.601 190.486 105.807 190.822C106.012 191.158 106.115 191.531 106.115 191.943C106.115 192.237 106.062 192.525 105.955 192.806C105.851 193.085 105.669 193.396 105.408 193.74C105.15 194.081 104.792 194.498 104.334 194.99L102.537 196.912V196.974H106.256V197.833H101.209ZM110.525 197.943C110.197 197.938 109.869 197.875 109.541 197.755C109.213 197.636 108.913 197.434 108.643 197.15C108.372 196.863 108.154 196.477 107.99 195.99C107.826 195.5 107.744 194.886 107.744 194.146C107.744 193.438 107.811 192.81 107.943 192.263C108.076 191.714 108.269 191.251 108.521 190.876C108.774 190.499 109.079 190.212 109.436 190.017C109.795 189.822 110.2 189.724 110.65 189.724C111.098 189.724 111.497 189.814 111.846 189.994C112.197 190.171 112.484 190.418 112.705 190.736C112.926 191.054 113.07 191.419 113.135 191.833H112.182C112.093 191.474 111.921 191.176 111.666 190.939C111.411 190.702 111.072 190.583 110.65 190.583C110.031 190.583 109.542 190.853 109.186 191.392C108.831 191.931 108.653 192.688 108.65 193.662H108.713C108.859 193.44 109.032 193.251 109.232 193.095C109.436 192.936 109.66 192.814 109.904 192.728C110.149 192.642 110.408 192.599 110.682 192.599C111.14 192.599 111.559 192.714 111.939 192.943C112.32 193.169 112.624 193.483 112.854 193.884C113.083 194.283 113.197 194.74 113.197 195.255C113.197 195.75 113.087 196.203 112.865 196.615C112.644 197.024 112.333 197.349 111.932 197.591C111.533 197.831 111.064 197.948 110.525 197.943ZM110.525 197.083C110.854 197.083 111.148 197.001 111.408 196.837C111.671 196.673 111.878 196.453 112.029 196.177C112.183 195.901 112.26 195.594 112.26 195.255C112.26 194.925 112.186 194.624 112.037 194.353C111.891 194.08 111.689 193.862 111.432 193.701C111.176 193.539 110.885 193.458 110.557 193.458C110.309 193.458 110.079 193.508 109.865 193.607C109.652 193.703 109.464 193.836 109.303 194.005C109.144 194.175 109.019 194.369 108.928 194.587C108.837 194.804 108.791 195.031 108.791 195.271C108.791 195.589 108.865 195.886 109.014 196.162C109.165 196.438 109.37 196.66 109.631 196.83C109.894 196.999 110.192 197.083 110.525 197.083Z" fill="#B3B3B3"/>
<path d="M139.07 197.833V197.13L141.711 194.24C142.021 193.901 142.276 193.607 142.477 193.357C142.677 193.104 142.826 192.867 142.922 192.646C143.021 192.422 143.07 192.188 143.07 191.943C143.07 191.662 143.003 191.418 142.867 191.212C142.734 191.007 142.552 190.848 142.32 190.736C142.089 190.624 141.828 190.568 141.539 190.568C141.232 190.568 140.964 190.632 140.734 190.759C140.508 190.884 140.332 191.06 140.207 191.287C140.085 191.513 140.023 191.779 140.023 192.083H139.102C139.102 191.615 139.21 191.203 139.426 190.849C139.642 190.495 139.936 190.219 140.309 190.021C140.684 189.823 141.104 189.724 141.57 189.724C142.039 189.724 142.454 189.823 142.816 190.021C143.178 190.219 143.462 190.486 143.668 190.822C143.874 191.158 143.977 191.531 143.977 191.943C143.977 192.237 143.923 192.525 143.816 192.806C143.712 193.085 143.53 193.396 143.27 193.74C143.012 194.081 142.654 194.498 142.195 194.99L140.398 196.912V196.974H144.117V197.833H139.07ZM145.98 197.833L149.559 190.755V190.693H145.434V189.833H150.559V190.74L146.996 197.833H145.98Z" fill="#B3B3B3"/>
<path d="M176.395 197.833V197.13L179.035 194.24C179.345 193.901 179.6 193.607 179.801 193.357C180.001 193.104 180.15 192.867 180.246 192.646C180.345 192.422 180.395 192.188 180.395 191.943C180.395 191.662 180.327 191.418 180.191 191.212C180.059 191.007 179.876 190.848 179.645 190.736C179.413 190.624 179.152 190.568 178.863 190.568C178.556 190.568 178.288 190.632 178.059 190.759C177.832 190.884 177.656 191.06 177.531 191.287C177.409 191.513 177.348 191.779 177.348 192.083H176.426C176.426 191.615 176.534 191.203 176.75 190.849C176.966 190.495 177.26 190.219 177.633 190.021C178.008 189.823 178.428 189.724 178.895 189.724C179.363 189.724 179.779 189.823 180.141 190.021C180.503 190.219 180.786 190.486 180.992 190.822C181.198 191.158 181.301 191.531 181.301 191.943C181.301 192.237 181.247 192.525 181.141 192.806C181.036 193.085 180.854 193.396 180.594 193.74C180.336 194.081 179.978 194.498 179.52 194.99L177.723 196.912V196.974H181.441V197.833H176.395ZM185.617 197.943C185.081 197.943 184.607 197.848 184.195 197.658C183.786 197.465 183.467 197.201 183.238 196.865C183.009 196.526 182.896 196.141 182.898 195.708C182.896 195.37 182.962 195.057 183.098 194.771C183.233 194.482 183.418 194.241 183.652 194.048C183.889 193.853 184.154 193.729 184.445 193.677V193.63C184.063 193.531 183.758 193.317 183.531 192.986C183.305 192.653 183.193 192.274 183.195 191.849C183.193 191.443 183.296 191.08 183.504 190.759C183.712 190.439 183.999 190.186 184.363 190.001C184.73 189.817 185.148 189.724 185.617 189.724C186.081 189.724 186.495 189.817 186.859 190.001C187.224 190.186 187.51 190.439 187.719 190.759C187.93 191.08 188.036 191.443 188.039 191.849C188.036 192.274 187.921 192.653 187.691 192.986C187.465 193.317 187.164 193.531 186.789 193.63V193.677C187.078 193.729 187.339 193.853 187.57 194.048C187.802 194.241 187.987 194.482 188.125 194.771C188.263 195.057 188.333 195.37 188.336 195.708C188.333 196.141 188.216 196.526 187.984 196.865C187.755 197.201 187.436 197.465 187.027 197.658C186.621 197.848 186.151 197.943 185.617 197.943ZM185.617 197.083C185.979 197.083 186.292 197.025 186.555 196.908C186.818 196.791 187.021 196.625 187.164 196.412C187.307 196.198 187.38 195.948 187.383 195.662C187.38 195.36 187.302 195.093 187.148 194.861C186.995 194.629 186.785 194.447 186.52 194.314C186.257 194.181 185.956 194.115 185.617 194.115C185.276 194.115 184.971 194.181 184.703 194.314C184.437 194.447 184.228 194.629 184.074 194.861C183.923 195.093 183.849 195.36 183.852 195.662C183.849 195.948 183.918 196.198 184.059 196.412C184.202 196.625 184.406 196.791 184.672 196.908C184.938 197.025 185.253 197.083 185.617 197.083ZM185.617 193.287C185.904 193.287 186.158 193.229 186.379 193.115C186.603 193 186.779 192.84 186.906 192.634C187.034 192.429 187.099 192.188 187.102 191.912C187.099 191.641 187.035 191.405 186.91 191.205C186.785 191.001 186.612 190.845 186.391 190.736C186.169 190.624 185.911 190.568 185.617 190.568C185.318 190.568 185.056 190.624 184.832 190.736C184.608 190.845 184.435 191.001 184.313 191.205C184.19 191.405 184.13 191.641 184.133 191.912C184.13 192.188 184.191 192.429 184.316 192.634C184.444 192.84 184.62 193 184.844 193.115C185.068 193.229 185.326 193.287 185.617 193.287Z" fill="#B3B3B3"/>
<path d="M213.923 197.833V197.13L216.563 194.24C216.873 193.901 217.129 193.607 217.329 193.357C217.53 193.104 217.678 192.867 217.774 192.646C217.873 192.422 217.923 192.188 217.923 191.943C217.923 191.662 217.855 191.418 217.72 191.212C217.587 191.007 217.405 190.848 217.173 190.736C216.941 190.624 216.681 190.568 216.392 190.568C216.084 190.568 215.816 190.632 215.587 190.759C215.36 190.884 215.185 191.06 215.06 191.287C214.937 191.513 214.876 191.779 214.876 192.083H213.954C213.954 191.615 214.062 191.203 214.278 190.849C214.494 190.495 214.789 190.219 215.161 190.021C215.536 189.823 215.957 189.724 216.423 189.724C216.892 189.724 217.307 189.823 217.669 190.021C218.031 190.219 218.315 190.486 218.521 190.822C218.726 191.158 218.829 191.531 218.829 191.943C218.829 192.237 218.776 192.525 218.669 192.806C218.565 193.085 218.382 193.396 218.122 193.74C217.864 194.081 217.506 194.498 217.048 194.99L215.251 196.912V196.974H218.97V197.833H213.923ZM223.13 189.724C223.458 189.727 223.786 189.789 224.114 189.912C224.442 190.034 224.742 190.237 225.013 190.521C225.284 190.802 225.501 191.186 225.665 191.673C225.829 192.16 225.911 192.771 225.911 193.505C225.911 194.216 225.843 194.848 225.708 195.4C225.575 195.949 225.382 196.413 225.13 196.791C224.88 197.168 224.575 197.455 224.216 197.65C223.859 197.845 223.455 197.943 223.005 197.943C222.557 197.943 222.157 197.854 221.806 197.677C221.457 197.498 221.17 197.249 220.946 196.931C220.725 196.611 220.583 196.24 220.521 195.818H221.474C221.56 196.185 221.73 196.488 221.985 196.728C222.243 196.965 222.583 197.083 223.005 197.083C223.622 197.083 224.109 196.814 224.466 196.275C224.825 195.736 225.005 194.974 225.005 193.99H224.942C224.797 194.208 224.623 194.397 224.423 194.556C224.222 194.715 224 194.837 223.755 194.923C223.51 195.009 223.25 195.052 222.974 195.052C222.515 195.052 222.095 194.939 221.712 194.712C221.332 194.483 221.027 194.169 220.798 193.771C220.571 193.37 220.458 192.912 220.458 192.396C220.458 191.906 220.567 191.458 220.786 191.052C221.007 190.643 221.317 190.318 221.716 190.076C222.117 189.833 222.588 189.716 223.13 189.724ZM223.13 190.583C222.802 190.583 222.506 190.666 222.243 190.83C221.983 190.991 221.776 191.21 221.622 191.486C221.471 191.759 221.396 192.063 221.396 192.396C221.396 192.729 221.468 193.033 221.614 193.306C221.763 193.577 221.965 193.793 222.22 193.955C222.478 194.113 222.771 194.193 223.099 194.193C223.346 194.193 223.576 194.145 223.79 194.048C224.004 193.949 224.19 193.815 224.349 193.646C224.51 193.474 224.636 193.28 224.728 193.064C224.819 192.845 224.864 192.617 224.864 192.38C224.864 192.068 224.789 191.775 224.638 191.501C224.489 191.228 224.284 191.007 224.021 190.837C223.76 190.668 223.463 190.583 223.13 190.583Z" fill="#B3B3B3"/>
<path d="M254.021 197.943C253.505 197.943 253.045 197.854 252.642 197.677C252.241 197.5 251.922 197.254 251.685 196.939C251.45 196.621 251.323 196.253 251.302 195.833H252.286C252.307 196.091 252.396 196.314 252.552 196.501C252.708 196.686 252.912 196.83 253.165 196.931C253.418 197.033 253.698 197.083 254.005 197.083C254.349 197.083 254.653 197.024 254.919 196.904C255.185 196.784 255.393 196.617 255.544 196.404C255.695 196.19 255.771 195.943 255.771 195.662C255.771 195.367 255.698 195.108 255.552 194.884C255.406 194.658 255.192 194.481 254.911 194.353C254.63 194.225 254.286 194.162 253.88 194.162H253.239V193.302H253.88C254.198 193.302 254.476 193.245 254.716 193.13C254.958 193.016 255.147 192.854 255.282 192.646C255.42 192.438 255.489 192.193 255.489 191.912C255.489 191.641 255.429 191.405 255.31 191.205C255.19 191.004 255.021 190.848 254.802 190.736C254.586 190.624 254.33 190.568 254.036 190.568C253.76 190.568 253.5 190.619 253.255 190.72C253.013 190.819 252.815 190.964 252.661 191.154C252.507 191.341 252.424 191.568 252.411 191.833H251.474C251.489 191.414 251.616 191.047 251.853 190.732C252.09 190.414 252.399 190.167 252.782 189.99C253.168 189.813 253.591 189.724 254.052 189.724C254.547 189.724 254.971 189.824 255.325 190.025C255.679 190.223 255.951 190.485 256.142 190.81C256.332 191.136 256.427 191.487 256.427 191.865C256.427 192.315 256.308 192.699 256.071 193.017C255.837 193.335 255.518 193.555 255.114 193.677V193.74C255.619 193.823 256.014 194.038 256.298 194.384C256.582 194.728 256.724 195.154 256.724 195.662C256.724 196.097 256.605 196.487 256.368 196.833C256.134 197.177 255.813 197.448 255.407 197.646C255.001 197.844 254.539 197.943 254.021 197.943ZM260.931 197.943C260.342 197.943 259.841 197.783 259.427 197.462C259.013 197.139 258.696 196.672 258.478 196.06C258.259 195.445 258.149 194.703 258.149 193.833C258.149 192.969 258.259 192.231 258.478 191.619C258.699 191.004 259.017 190.535 259.431 190.212C259.847 189.887 260.347 189.724 260.931 189.724C261.514 189.724 262.013 189.887 262.427 190.212C262.843 190.535 263.161 191.004 263.38 191.619C263.601 192.231 263.712 192.969 263.712 193.833C263.712 194.703 263.603 195.445 263.384 196.06C263.165 196.672 262.849 197.139 262.435 197.462C262.021 197.783 261.519 197.943 260.931 197.943ZM260.931 197.083C261.514 197.083 261.967 196.802 262.29 196.24C262.613 195.677 262.774 194.875 262.774 193.833C262.774 193.141 262.7 192.551 262.552 192.064C262.406 191.577 262.195 191.206 261.919 190.951C261.646 190.695 261.316 190.568 260.931 190.568C260.353 190.568 259.901 190.853 259.575 191.423C259.25 191.991 259.087 192.794 259.087 193.833C259.087 194.526 259.16 195.115 259.306 195.599C259.451 196.083 259.661 196.452 259.935 196.705C260.211 196.957 260.543 197.083 260.931 197.083Z" fill="black"/>
<path d="M296.084 189.833V197.833H295.115V190.849H295.068L293.115 192.146V191.162L295.115 189.833H296.084Z" fill="black"/>
</g>
<g clip-path="url(#clip7_565_13067)">
<rect x="20" y="208" width="24" height="24" rx="4" fill="#333333"/>
<path d="M26.1152 222.703V222.312L29.7363 216.5H30.0332V217.254H29.7793L26.7051 222.207V222.25H31.3262V222.703H26.1152ZM29.8184 224.5V222.57V222.395V216.5H30.2949V224.5H29.8184ZM35.2939 216.391C35.6299 216.391 35.9489 216.462 36.251 216.605C36.5531 216.749 36.82 216.97 37.0518 217.27C37.2861 217.566 37.4697 217.952 37.6025 218.426C37.738 218.897 37.8057 219.465 37.8057 220.129C37.8057 220.725 37.7575 221.293 37.6611 221.832C37.5674 222.368 37.4176 222.846 37.2119 223.266C37.0062 223.682 36.738 224.01 36.4072 224.25C36.0765 224.49 35.6742 224.609 35.2002 224.609C34.7861 224.609 34.4229 224.52 34.1104 224.34C33.7979 224.16 33.5465 223.911 33.3564 223.594C33.1689 223.273 33.0557 222.904 33.0166 222.484H33.501C33.5557 222.971 33.7301 223.372 34.0244 223.687C34.3187 224 34.7106 224.156 35.2002 224.156C35.8903 224.156 36.4189 223.816 36.7861 223.137C37.1533 222.457 37.3369 221.484 37.3369 220.219H37.2939C37.1898 220.469 37.0348 220.69 36.8291 220.883C36.626 221.073 36.3903 221.221 36.1221 221.328C35.8538 221.435 35.5713 221.488 35.2744 221.488C34.8395 221.488 34.4424 221.378 34.083 221.156C33.7236 220.935 33.4372 220.632 33.2236 220.246C33.0101 219.861 32.9033 219.424 32.9033 218.938C32.9033 218.479 33.0023 218.056 33.2002 217.668C33.4007 217.28 33.6794 216.97 34.0361 216.738C34.3955 216.504 34.8148 216.388 35.2939 216.391ZM35.2939 216.844C34.9268 216.844 34.5986 216.937 34.3096 217.125C34.0231 217.312 33.7965 217.565 33.6299 217.883C33.4658 218.201 33.3838 218.552 33.3838 218.938C33.3838 219.331 33.4684 219.686 33.6377 220.004C33.8096 220.319 34.0413 220.57 34.333 220.758C34.6273 220.943 34.958 221.035 35.3252 221.035C35.6117 221.035 35.8773 220.978 36.1221 220.863C36.3669 220.746 36.5765 220.586 36.751 220.383C36.9281 220.177 37.0583 219.944 37.1416 219.684C37.2249 219.421 37.2458 219.146 37.2041 218.859C37.1468 218.443 37.0296 218.085 36.8525 217.785C36.6781 217.483 36.4567 217.251 36.1885 217.09C35.9229 216.926 35.6247 216.844 35.2939 216.844Z" fill="#B3B3B3"/>
<path d="M67.0693 224.5V223.797L69.71 220.906C70.0199 220.568 70.2751 220.273 70.4756 220.023C70.6761 219.771 70.8245 219.534 70.9209 219.312C71.0199 219.089 71.0693 218.854 71.0693 218.609C71.0693 218.328 71.0016 218.085 70.8662 217.879C70.7334 217.673 70.5511 217.514 70.3193 217.402C70.0876 217.29 69.8271 217.234 69.5381 217.234C69.2308 217.234 68.9626 217.298 68.7334 217.426C68.5068 217.551 68.3311 217.727 68.2061 217.953C68.0837 218.18 68.0225 218.445 68.0225 218.75H67.1006C67.1006 218.281 67.2087 217.87 67.4248 217.516C67.641 217.161 67.9352 216.885 68.3076 216.687C68.6826 216.49 69.1032 216.391 69.5693 216.391C70.0381 216.391 70.4535 216.49 70.8154 216.687C71.1774 216.885 71.4613 217.152 71.667 217.488C71.8727 217.824 71.9756 218.198 71.9756 218.609C71.9756 218.904 71.9222 219.191 71.8154 219.473C71.7113 219.751 71.529 220.062 71.2686 220.406C71.0107 220.747 70.6527 221.164 70.1943 221.656L68.3975 223.578V223.641H72.1162V224.5H67.0693Z" fill="#616161"/>
<path d="M107.172 224.609C106.657 224.609 106.197 224.521 105.793 224.344C105.392 224.167 105.073 223.921 104.836 223.605C104.602 223.288 104.474 222.919 104.454 222.5H105.438C105.459 222.758 105.547 222.98 105.704 223.168C105.86 223.353 106.064 223.496 106.317 223.598C106.569 223.699 106.849 223.75 107.157 223.75C107.5 223.75 107.805 223.69 108.071 223.57C108.336 223.451 108.545 223.284 108.696 223.07C108.847 222.857 108.922 222.609 108.922 222.328C108.922 222.034 108.849 221.775 108.704 221.551C108.558 221.324 108.344 221.147 108.063 221.02C107.782 220.892 107.438 220.828 107.032 220.828H106.391V219.969H107.032C107.349 219.969 107.628 219.911 107.868 219.797C108.11 219.682 108.299 219.521 108.434 219.312C108.572 219.104 108.641 218.859 108.641 218.578C108.641 218.307 108.581 218.072 108.461 217.871C108.342 217.671 108.172 217.514 107.954 217.402C107.737 217.29 107.482 217.234 107.188 217.234C106.912 217.234 106.652 217.285 106.407 217.387C106.165 217.486 105.967 217.63 105.813 217.82C105.659 218.008 105.576 218.234 105.563 218.5H104.625C104.641 218.081 104.767 217.714 105.004 217.398C105.241 217.081 105.551 216.833 105.934 216.656C106.319 216.479 106.743 216.391 107.204 216.391C107.698 216.391 108.123 216.491 108.477 216.691C108.831 216.889 109.103 217.151 109.293 217.477C109.484 217.802 109.579 218.154 109.579 218.531C109.579 218.982 109.46 219.366 109.223 219.684C108.989 220.001 108.67 220.221 108.266 220.344V220.406C108.771 220.49 109.166 220.704 109.45 221.051C109.734 221.395 109.875 221.82 109.875 222.328C109.875 222.763 109.757 223.154 109.52 223.5C109.286 223.844 108.965 224.115 108.559 224.312C108.153 224.51 107.691 224.609 107.172 224.609Z" fill="#616161"/>
<path d="M141.826 222.859V222.062L145.342 216.5H145.92V217.734H145.529L142.873 221.937V222H147.607V222.859H141.826ZM145.592 224.5V222.617V222.246V216.5H146.514V224.5H145.592Z" fill="#616161"/>
<path d="M182.268 224.609C181.809 224.609 181.396 224.518 181.029 224.336C180.662 224.154 180.368 223.904 180.146 223.586C179.925 223.268 179.804 222.906 179.783 222.5H180.721C180.757 222.862 180.921 223.161 181.213 223.398C181.507 223.633 181.859 223.75 182.268 223.75C182.596 223.75 182.887 223.673 183.143 223.52C183.4 223.366 183.602 223.155 183.748 222.887C183.896 222.616 183.971 222.31 183.971 221.969C183.971 221.62 183.894 221.309 183.74 221.035C183.589 220.759 183.381 220.542 183.115 220.383C182.85 220.224 182.546 220.143 182.205 220.141C181.96 220.138 181.709 220.176 181.451 220.254C181.193 220.329 180.981 220.427 180.814 220.547L179.908 220.437L180.393 216.5H184.549V217.359H181.205L180.924 219.719H180.971C181.135 219.589 181.34 219.48 181.588 219.395C181.835 219.309 182.093 219.266 182.361 219.266C182.851 219.266 183.287 219.383 183.67 219.617C184.055 219.849 184.357 220.167 184.576 220.57C184.798 220.974 184.908 221.435 184.908 221.953C184.908 222.464 184.794 222.919 184.564 223.32C184.338 223.719 184.025 224.034 183.627 224.266C183.229 224.495 182.775 224.609 182.268 224.609Z" fill="#616161"/>
<path d="M219.909 224.609C219.581 224.604 219.253 224.542 218.925 224.422C218.597 224.302 218.297 224.1 218.026 223.816C217.756 223.53 217.538 223.143 217.374 222.656C217.21 222.167 217.128 221.552 217.128 220.812C217.128 220.104 217.194 219.477 217.327 218.93C217.46 218.38 217.653 217.918 217.905 217.543C218.158 217.165 218.463 216.879 218.819 216.684C219.179 216.488 219.584 216.391 220.034 216.391C220.482 216.391 220.881 216.48 221.229 216.66C221.581 216.837 221.868 217.085 222.089 217.402C222.31 217.72 222.453 218.086 222.519 218.5H221.565C221.477 218.141 221.305 217.842 221.05 217.605C220.795 217.368 220.456 217.25 220.034 217.25C219.414 217.25 218.926 217.52 218.569 218.059C218.215 218.598 218.037 219.354 218.034 220.328H218.097C218.243 220.107 218.416 219.918 218.616 219.762C218.819 219.603 219.043 219.48 219.288 219.395C219.533 219.309 219.792 219.266 220.065 219.266C220.524 219.266 220.943 219.38 221.323 219.609C221.703 219.836 222.008 220.15 222.237 220.551C222.466 220.949 222.581 221.406 222.581 221.922C222.581 222.417 222.47 222.87 222.249 223.281C222.028 223.69 221.716 224.016 221.315 224.258C220.917 224.497 220.448 224.615 219.909 224.609ZM219.909 223.75C220.237 223.75 220.532 223.668 220.792 223.504C221.055 223.34 221.262 223.12 221.413 222.844C221.567 222.568 221.644 222.26 221.644 221.922C221.644 221.591 221.569 221.29 221.421 221.02C221.275 220.746 221.073 220.529 220.815 220.367C220.56 220.206 220.269 220.125 219.94 220.125C219.693 220.125 219.463 220.174 219.249 220.273C219.035 220.37 218.848 220.503 218.687 220.672C218.528 220.841 218.403 221.035 218.312 221.254C218.22 221.47 218.175 221.698 218.175 221.937C218.175 222.255 218.249 222.552 218.397 222.828C218.549 223.104 218.754 223.327 219.015 223.496C219.278 223.665 219.576 223.75 219.909 223.75Z" fill="#616161"/>
<path d="M255.365 224.5L258.943 217.422V217.359H254.818V216.5H259.943V217.406L256.38 224.5H255.365Z" fill="black"/>
<path d="M295.001 224.609C294.465 224.609 293.991 224.514 293.58 224.324C293.171 224.132 292.852 223.867 292.623 223.531C292.393 223.193 292.28 222.807 292.283 222.375C292.28 222.036 292.347 221.724 292.482 221.437C292.617 221.148 292.802 220.908 293.037 220.715C293.274 220.52 293.538 220.396 293.83 220.344V220.297C293.447 220.198 293.142 219.983 292.916 219.652C292.689 219.319 292.577 218.94 292.58 218.516C292.577 218.109 292.68 217.746 292.888 217.426C293.097 217.105 293.383 216.853 293.748 216.668C294.115 216.483 294.533 216.391 295.001 216.391C295.465 216.391 295.879 216.483 296.244 216.668C296.608 216.853 296.895 217.105 297.103 217.426C297.314 217.746 297.421 218.109 297.423 218.516C297.421 218.94 297.305 219.319 297.076 219.652C296.849 219.983 296.548 220.198 296.173 220.297V220.344C296.462 220.396 296.723 220.52 296.955 220.715C297.186 220.908 297.371 221.148 297.509 221.437C297.647 221.724 297.718 222.036 297.72 222.375C297.718 222.807 297.6 223.193 297.369 223.531C297.139 223.867 296.82 224.132 296.412 224.324C296.005 224.514 295.535 224.609 295.001 224.609ZM295.001 223.75C295.363 223.75 295.676 223.691 295.939 223.574C296.202 223.457 296.405 223.292 296.548 223.078C296.692 222.865 296.764 222.615 296.767 222.328C296.764 222.026 296.686 221.759 296.533 221.527C296.379 221.296 296.169 221.113 295.904 220.98C295.641 220.848 295.34 220.781 295.001 220.781C294.66 220.781 294.356 220.848 294.087 220.98C293.822 221.113 293.612 221.296 293.458 221.527C293.307 221.759 293.233 222.026 293.236 222.328C293.233 222.615 293.302 222.865 293.443 223.078C293.586 223.292 293.791 223.457 294.056 223.574C294.322 223.691 294.637 223.75 295.001 223.75ZM295.001 219.953C295.288 219.953 295.542 219.896 295.763 219.781C295.987 219.667 296.163 219.507 296.291 219.301C296.418 219.095 296.483 218.854 296.486 218.578C296.483 218.307 296.419 218.072 296.294 217.871C296.169 217.668 295.996 217.512 295.775 217.402C295.554 217.29 295.296 217.234 295.001 217.234C294.702 217.234 294.44 217.29 294.216 217.402C293.992 217.512 293.819 217.668 293.697 217.871C293.574 218.072 293.514 218.307 293.517 218.578C293.514 218.854 293.576 219.095 293.701 219.301C293.828 219.507 294.004 219.667 294.228 219.781C294.452 219.896 294.71 219.953 295.001 219.953Z" fill="black"/>
</g>
</g>
<defs>
<clipPath id="clip0_565_13067">
<rect width="287" height="184" fill="white" transform="translate(20 48)"/>
</clipPath>
<clipPath id="clip1_565_13067">
<rect width="287" height="24" fill="white" transform="translate(20 48)"/>
</clipPath>
<clipPath id="clip2_565_13067">
<rect width="287" height="24" fill="white" transform="translate(20 74.6665)"/>
</clipPath>
<clipPath id="clip3_565_13067">
<rect width="287" height="24" fill="white" transform="translate(20 101.333)"/>
</clipPath>
<clipPath id="clip4_565_13067">
<rect width="287" height="24" fill="white" transform="translate(20 128)"/>
</clipPath>
<clipPath id="clip5_565_13067">
<rect width="287" height="24" fill="white" transform="translate(20 154.667)"/>
</clipPath>
<clipPath id="clip6_565_13067">
<rect width="287" height="24" fill="white" transform="translate(20 181.333)"/>
</clipPath>
<clipPath id="clip7_565_13067">
<rect width="287" height="24" fill="white" transform="translate(20 208)"/>
</clipPath>
</defs>
</svg>
