<svg width="27" height="27" viewBox="0 0 27 27" fill="none" xmlns="http://www.w3.org/2000/svg">
<path d="M0.644631 0.644386C1.39314 -0.104118 2.6067 -0.104118 3.35521 0.644386L13.4999 10.7891L23.6446 0.644386C24.3931 -0.104118 25.6067 -0.104118 26.3552 0.644386C27.1037 1.39289 27.1037 2.60646 26.3552 3.35496L16.2105 13.4997L26.3552 23.6444C27.1037 24.3929 27.1037 25.6065 26.3552 26.355C25.6067 27.1035 24.3931 27.1035 23.6446 26.355L13.4999 16.2102L3.35521 26.355C2.6067 27.1035 1.39314 27.1035 0.644631 26.355C-0.103874 25.6065 -0.103874 24.3929 0.644631 23.6444L10.7893 13.4997L0.644631 3.35496C-0.103874 2.60646 -0.103874 1.39289 0.644631 0.644386Z" fill="black"/>
</svg>
