<svg width="16" height="15" viewBox="0 0 16 15" fill="none" xmlns="http://www.w3.org/2000/svg">
<path d="M7 2.34375C7 2.08487 7.22386 1.875 7.5 1.875H14.5C14.7761 1.875 15 2.08487 15 2.34375V3.28125C15 3.54013 14.7761 3.75 14.5 3.75H7.5C7.22386 3.75 7 3.54013 7 3.28125V2.34375Z" fill="white"/>
<path d="M0 11.25C0 9.6967 1.34315 8.4375 3 8.4375C4.65685 8.4375 6 9.6967 6 11.25C6 12.8033 4.65685 14.0625 3 14.0625C1.34315 14.0625 0 12.8033 0 11.25Z" fill="white"/>
<path d="M7 9.84375C7 9.58487 7.22386 9.375 7.5 9.375H14.5C14.7761 9.375 15 9.58487 15 9.84375V10.7812C15 11.0401 14.7761 11.25 14.5 11.25H7.5C7.22386 11.25 7 11.0401 7 10.7812V9.84375Z" fill="white"/>
<path d="M7 5.15625C7 4.89737 7.22386 4.6875 7.5 4.6875H12.5C12.7761 4.6875 13 4.89737 13 5.15625C13 5.41513 12.7761 5.625 12.5 5.625H7.5C7.22386 5.625 7 5.41513 7 5.15625Z" fill="white"/>
<path d="M7 12.6562C7 12.3974 7.22386 12.1875 7.5 12.1875H12.5C12.7761 12.1875 13 12.3974 13 12.6562C13 12.9151 12.7761 13.125 12.5 13.125H7.5C7.22386 13.125 7 12.9151 7 12.6562Z" fill="white"/>
<path d="M3 0.9375C1.34315 0.9375 0 2.1967 0 3.75C0 5.3033 1.34315 6.5625 3 6.5625C4.65685 6.5625 6 5.3033 6 3.75C6 2.1967 4.65685 0.9375 3 0.9375ZM3 5.15625C2.17157 5.15625 1.5 4.52665 1.5 3.75C1.5 2.97335 2.17157 2.34375 3 2.34375C3.82843 2.34375 4.5 2.97335 4.5 3.75C4.5 4.52665 3.82843 5.15625 3 5.15625Z" fill="white"/>
</svg>
